<svg width="378" height="274" viewBox="0 0 378 274" fill="none" xmlns="http://www.w3.org/2000/svg">
<path d="M348.298 199.094H55.641C53.6433 199.092 51.728 198.294 50.3153 196.877C48.9027 195.46 48.1081 193.538 48.1058 191.534V10.4891C48.1075 9.02079 48.6896 7.61305 49.7245 6.57475C50.7594 5.53645 52.1625 4.95238 53.6261 4.95068H350.218C351.707 4.95238 353.134 5.54653 354.187 6.60279C355.24 7.65904 355.832 9.09114 355.833 10.5849V191.534C355.831 193.538 355.037 195.46 353.624 196.877C352.211 198.294 350.296 199.092 348.298 199.094V199.094Z" fill="#F2F2F2"/>
<path d="M338.836 189.549H66.0871C62.0889 189.549 58.8361 186.493 58.8361 182.737V25.0809C58.8361 22.2952 61.2465 20.0288 64.2092 20.0288H340.625C343.637 20.0288 346.087 22.3326 346.087 25.1641V182.737C346.087 186.493 342.834 189.549 338.836 189.549Z" fill="white"/>
<path d="M355.729 11.4313H48V7.58251C48.0029 5.57159 48.8007 3.64393 50.2185 2.22242C51.6363 0.800923 53.5582 0.00166743 55.5626 0H348.166C350.17 0.00165047 352.092 0.800899 353.51 2.2224C354.928 3.64391 355.726 5.57158 355.729 7.58251V11.4313Z" fill="#3F3D56"/>
<path d="M61.7439 7.68966C62.8243 7.68966 63.7001 6.81101 63.7001 5.72715C63.7001 4.64329 62.8243 3.76465 61.7439 3.76465C60.6636 3.76465 59.7878 4.64329 59.7878 5.72715C59.7878 6.81101 60.6636 7.68966 61.7439 7.68966Z" fill="white"/>
<path d="M69.169 7.68966C70.2493 7.68966 71.1251 6.81101 71.1251 5.72715C71.1251 4.64329 70.2493 3.76465 69.169 3.76465C68.0886 3.76465 67.2128 4.64329 67.2128 5.72715C67.2128 6.81101 68.0886 7.68966 69.169 7.68966Z" fill="white"/>
<path d="M76.5941 7.68966C77.6744 7.68966 78.5502 6.81101 78.5502 5.72715C78.5502 4.64329 77.6744 3.76465 76.5941 3.76465C75.5137 3.76465 74.6379 4.64329 74.6379 5.72715C74.6379 6.81101 75.5137 7.68966 76.5941 7.68966Z" fill="white"/>
<path d="M195.991 54.5006H142.647C141.852 54.5006 141.089 54.1837 140.527 53.6195C139.964 53.0553 139.648 52.2901 139.648 51.4923C139.648 50.6944 139.964 49.9292 140.527 49.365C141.089 48.8008 141.852 48.4839 142.647 48.4839H195.991C196.786 48.4839 197.549 48.8008 198.111 49.365C198.674 49.9292 198.989 50.6944 198.989 51.4923C198.989 52.2901 198.674 53.0553 198.111 53.6195C197.549 54.1837 196.786 54.5006 195.991 54.5006V54.5006Z" fill="#CCCCCC"/>
<path d="M262.276 54.5006H208.932C208.137 54.5006 207.374 54.1837 206.812 53.6195C206.25 53.0553 205.934 52.2901 205.934 51.4923C205.934 50.6944 206.25 49.9292 206.812 49.365C207.374 48.8008 208.137 48.4839 208.932 48.4839H262.276C263.071 48.4839 263.834 48.8008 264.396 49.365C264.959 49.9292 265.275 50.6944 265.275 51.4923C265.275 52.2901 264.959 53.0553 264.396 53.6195C263.834 54.1837 263.071 54.5006 262.276 54.5006V54.5006Z" fill="#CCCCCC"/>
<path d="M262.276 65.9008H169.477C168.681 65.9008 167.919 65.5838 167.356 65.0196C166.794 64.4554 166.478 63.6903 166.478 62.8924C166.478 62.0945 166.794 61.3293 167.356 60.7652C167.919 60.201 168.681 59.884 169.477 59.884H262.276C263.071 59.884 263.834 60.201 264.396 60.7652C264.959 61.3293 265.275 62.0945 265.275 62.8924C265.275 63.6903 264.959 64.4554 264.396 65.0196C263.834 65.5838 263.071 65.9008 262.276 65.9008Z" fill="#CCCCCC"/>
<path d="M195.991 42.942H142.647C141.852 42.941 141.091 42.6237 140.529 42.0596C139.968 41.4955 139.652 40.7309 139.652 39.9337C139.652 39.1364 139.968 38.3718 140.529 37.8077C141.091 37.2437 141.852 36.9263 142.647 36.9253H195.991C196.385 36.9248 196.775 37.0023 197.14 37.1532C197.504 37.3042 197.835 37.5257 198.114 37.8051C198.392 38.0845 198.614 38.4163 198.765 38.7815C198.915 39.1468 198.993 39.5383 198.993 39.9337C198.993 40.329 198.915 40.7205 198.765 41.0858C198.614 41.451 198.392 41.7828 198.114 42.0622C197.835 42.3416 197.504 42.5631 197.14 42.7141C196.775 42.8651 196.385 42.9425 195.991 42.942V42.942Z" fill="#CCCCCC"/>
<path d="M225.346 43.1005H210.195C209.399 43.1005 208.637 42.7835 208.074 42.2193C207.512 41.6552 207.196 40.89 207.196 40.0921C207.196 39.2942 207.512 38.529 208.074 37.9649C208.637 37.4007 209.399 37.0837 210.195 37.0837H225.346C226.141 37.0837 226.904 37.4007 227.466 37.9649C228.028 38.529 228.344 39.2942 228.344 40.0921C228.344 40.89 228.028 41.6552 227.466 42.2193C226.904 42.7835 226.141 43.1005 225.346 43.1005Z" fill="#CCCCCC"/>
<path d="M157.798 65.9008H142.647C141.852 65.8998 141.091 65.5824 140.529 65.0183C139.968 64.4543 139.652 63.6896 139.652 62.8924C139.652 62.0952 139.968 61.3305 140.529 60.7665C141.091 60.2024 141.852 59.885 142.647 59.884H157.798C158.192 59.8835 158.582 59.961 158.947 60.112C159.311 60.2629 159.642 60.4844 159.921 60.7638C160.2 61.0432 160.421 61.3751 160.572 61.7403C160.723 62.1055 160.8 62.497 160.8 62.8924C160.8 63.2878 160.723 63.6793 160.572 64.0445C160.421 64.4098 160.2 64.7416 159.921 65.021C159.642 65.3004 159.311 65.5219 158.947 65.6728C158.582 65.8238 158.192 65.9013 157.798 65.9008Z" fill="#CCCCCC"/>
<path d="M195.991 161.253H142.647C141.852 161.253 141.089 160.936 140.527 160.372C139.964 159.808 139.648 159.042 139.648 158.244C139.648 157.447 139.964 156.681 140.527 156.117C141.089 155.553 141.852 155.236 142.647 155.236H195.991C196.385 155.236 196.775 155.314 197.138 155.465C197.502 155.616 197.833 155.838 198.111 156.117C198.39 156.397 198.611 156.728 198.761 157.093C198.912 157.458 198.989 157.849 198.989 158.244C198.989 158.64 198.912 159.031 198.761 159.396C198.611 159.761 198.39 160.092 198.111 160.372C197.833 160.651 197.502 160.873 197.138 161.024C196.775 161.175 196.385 161.253 195.991 161.253V161.253Z" fill="#CCCCCC"/>
<path d="M262.276 161.253H208.932C208.137 161.253 207.374 160.936 206.812 160.372C206.25 159.808 205.934 159.042 205.934 158.244C205.934 157.447 206.25 156.681 206.812 156.117C207.374 155.553 208.137 155.236 208.932 155.236H262.276C262.67 155.236 263.06 155.314 263.424 155.465C263.787 155.616 264.118 155.838 264.396 156.117C264.675 156.397 264.896 156.728 265.046 157.093C265.197 157.458 265.275 157.849 265.275 158.244C265.275 158.64 265.197 159.031 265.046 159.396C264.896 159.761 264.675 160.092 264.396 160.372C264.118 160.651 263.787 160.873 263.424 161.024C263.06 161.175 262.67 161.253 262.276 161.253V161.253Z" fill="#CCCCCC"/>
<path d="M262.276 172.653H169.477C168.681 172.653 167.919 172.336 167.356 171.772C166.794 171.208 166.478 170.442 166.478 169.645C166.478 168.847 166.794 168.082 167.356 167.517C167.919 166.953 168.681 166.636 169.477 166.636H262.276C262.67 166.636 263.06 166.713 263.425 166.864C263.789 167.015 264.12 167.237 264.399 167.516C264.678 167.795 264.899 168.127 265.05 168.492C265.201 168.858 265.278 169.249 265.278 169.645C265.278 170.04 265.201 170.431 265.05 170.797C264.899 171.162 264.678 171.494 264.399 171.773C264.12 172.053 263.789 172.274 263.425 172.425C263.06 172.576 262.67 172.653 262.276 172.653Z" fill="#CCCCCC"/>
<path d="M195.991 149.694H142.647C141.852 149.694 141.089 149.377 140.527 148.813C139.964 148.249 139.648 147.484 139.648 146.686C139.648 145.888 139.964 145.123 140.527 144.559C141.089 143.994 141.852 143.677 142.647 143.677H195.991C196.786 143.677 197.549 143.994 198.111 144.559C198.674 145.123 198.989 145.888 198.989 146.686C198.989 147.484 198.674 148.249 198.111 148.813C197.549 149.377 196.786 149.694 195.991 149.694Z" fill="#CCCCCC"/>
<path d="M225.346 149.853H210.195C209.399 149.853 208.637 149.536 208.074 148.972C207.512 148.407 207.196 147.642 207.196 146.844C207.196 146.046 207.512 145.281 208.074 144.717C208.637 144.153 209.399 143.836 210.195 143.836H225.346C226.141 143.836 226.904 144.153 227.466 144.717C228.028 145.281 228.344 146.046 228.344 146.844C228.344 147.642 228.028 148.407 227.466 148.972C226.904 149.536 226.141 149.853 225.346 149.853V149.853Z" fill="#CCCCCC"/>
<path d="M157.798 172.653H142.647C141.852 172.653 141.089 172.336 140.527 171.772C139.964 171.208 139.648 170.442 139.648 169.645C139.648 168.847 139.964 168.082 140.527 167.517C141.089 166.953 141.852 166.636 142.647 166.636H157.798C158.192 166.636 158.582 166.713 158.947 166.864C159.311 167.015 159.642 167.237 159.921 167.516C160.2 167.795 160.421 168.127 160.572 168.492C160.723 168.858 160.8 169.249 160.8 169.645C160.8 170.04 160.723 170.431 160.572 170.797C160.421 171.162 160.2 171.494 159.921 171.773C159.642 172.053 159.311 172.274 158.947 172.425C158.582 172.576 158.192 172.653 157.798 172.653Z" fill="#CCCCCC"/>
<path d="M182.059 128.956C180.927 128.958 179.84 128.512 179.034 127.714L158.982 107.848C158.588 107.458 158.276 106.994 158.063 106.482C157.849 105.969 157.739 105.42 157.739 104.865C157.739 104.31 157.849 103.76 158.063 103.248C158.276 102.736 158.588 102.271 158.982 101.881L178.953 82.0959C179.785 81.2756 180.906 80.8176 182.073 80.8213C183.239 80.825 184.357 81.2901 185.184 82.1156C186.012 82.9478 186.476 84.0754 186.476 85.2509C186.476 86.4265 186.012 87.5541 185.184 88.3863L170.344 103.275C169.881 103.74 169.622 104.37 169.622 105.027C169.622 105.684 169.881 106.313 170.344 106.778L185.103 121.586C185.706 122.19 186.117 122.959 186.283 123.797C186.45 124.635 186.365 125.503 186.038 126.293C185.712 127.082 185.16 127.756 184.452 128.23C183.743 128.704 182.911 128.957 182.059 128.956V128.956Z" fill="#0371B4"/>
<path d="M214.011 128.955C213.159 128.957 212.327 128.704 211.618 128.23C210.91 127.756 210.357 127.082 210.031 126.292C209.705 125.503 209.62 124.635 209.787 123.797C209.953 122.959 210.364 122.19 210.966 121.586L225.726 106.778C226.189 106.313 226.448 105.683 226.448 105.027C226.448 104.37 226.189 103.74 225.726 103.275L210.886 88.3861C210.476 87.9743 210.15 87.4855 209.928 86.9476C209.706 86.4096 209.591 85.833 209.591 85.2507C209.591 84.6684 209.706 84.0918 209.928 83.5539C210.15 83.0159 210.476 82.5271 210.886 82.1154V82.1154C211.713 81.2898 212.831 80.8248 213.997 80.8211C215.164 80.8174 216.285 81.2754 217.117 82.0957L237.088 101.881C237.481 102.271 237.794 102.736 238.007 103.248C238.221 103.76 238.331 104.309 238.331 104.865C238.331 105.42 238.221 105.969 238.007 106.481C237.794 106.993 237.481 107.458 237.088 107.848L217.036 127.714C216.23 128.511 215.143 128.958 214.011 128.955Z" fill="#0371B4"/>
<path d="M362.954 244.837V132.432H279.361V244.837H362.954Z" fill="#2F2E41"/>
<path d="M377.315 129H265V173.619H377.315V129Z" fill="#3F3D56"/>
<path d="M377.315 178.767H265V223.386H377.315V178.767Z" fill="#3F3D56"/>
<path d="M377.315 228.534H265V273.153H377.315V228.534Z" fill="#3F3D56"/>
<path d="M377.315 147.918H265V154.783H377.315V147.918Z" fill="#0371B4"/>
<path d="M377.315 197.686H265V204.55H377.315V197.686Z" fill="#0371B4"/>
<path d="M377.315 247.452H265V254.317H377.315V247.452Z" fill="#0371B4"/>
<path d="M355.452 138.01C356.873 138.01 358.025 136.857 358.025 135.435C358.025 134.014 356.873 132.861 355.452 132.861C354.032 132.861 352.88 134.014 352.88 135.435C352.88 136.857 354.032 138.01 355.452 138.01Z" fill="#0371B4"/>
<path d="M364.455 138.01C365.875 138.01 367.027 136.857 367.027 135.435C367.027 134.014 365.875 132.861 364.455 132.861C363.034 132.861 361.883 134.014 361.883 135.435C361.883 136.857 363.034 138.01 364.455 138.01Z" fill="#0371B4"/>
<path d="M373.457 138.01C374.878 138.01 376.029 136.857 376.029 135.435C376.029 134.014 374.878 132.861 373.457 132.861C372.037 132.861 370.885 134.014 370.885 135.435C370.885 136.857 372.037 138.01 373.457 138.01Z" fill="#0371B4"/>
<path d="M355.452 186.919C356.873 186.919 358.025 185.766 358.025 184.344C358.025 182.923 356.873 181.77 355.452 181.77C354.032 181.77 352.88 182.923 352.88 184.344C352.88 185.766 354.032 186.919 355.452 186.919Z" fill="#0371B4"/>
<path d="M364.455 186.919C365.875 186.919 367.027 185.766 367.027 184.344C367.027 182.923 365.875 181.77 364.455 181.77C363.034 181.77 361.883 182.923 361.883 184.344C361.883 185.766 363.034 186.919 364.455 186.919Z" fill="#0371B4"/>
<path d="M373.457 186.919C374.878 186.919 376.029 185.766 376.029 184.344C376.029 182.923 374.878 181.77 373.457 181.77C372.037 181.77 370.885 182.923 370.885 184.344C370.885 185.766 372.037 186.919 373.457 186.919Z" fill="#0371B4"/>
<path d="M355.452 235.827C356.873 235.827 358.025 234.675 358.025 233.253C358.025 231.831 356.873 230.679 355.452 230.679C354.032 230.679 352.88 231.831 352.88 233.253C352.88 234.675 354.032 235.827 355.452 235.827Z" fill="#0371B4"/>
<path d="M364.455 235.827C365.875 235.827 367.027 234.675 367.027 233.253C367.027 231.831 365.875 230.679 364.455 230.679C363.034 230.679 361.883 231.831 361.883 233.253C361.883 234.675 363.034 235.827 364.455 235.827Z" fill="#0371B4"/>
<path d="M373.457 235.827C374.878 235.827 376.029 234.675 376.029 233.253C376.029 231.831 374.878 230.679 373.457 230.679C372.037 230.679 370.885 231.831 370.885 233.253C370.885 234.675 372.037 235.827 373.457 235.827Z" fill="#0371B4"/>
<path d="M83.0367 257.591C82.4822 257.591 81.9315 257.446 81.4454 257.167L76.3804 254.177C75.6238 253.755 75.993 253.606 76.2425 253.52C77.2512 253.168 77.4559 253.088 78.5325 252.479C78.6457 252.414 78.7938 252.437 78.9097 252.505L82.8008 254.807C82.9413 254.883 83.1407 254.883 83.271 254.807L98.4429 246.076C98.5835 245.996 98.6746 245.833 98.6746 245.667V228.21C98.6746 228.036 98.5835 227.881 98.4399 227.794L83.274 219.069C83.1335 218.986 82.9474 218.986 82.8069 219.069L67.644 227.794C67.4971 227.877 67.4036 228.04 67.4036 228.206V245.663C67.4036 245.829 67.4948 245.988 67.6391 246.068L71.7938 248.461C74.0497 249.586 75.4283 248.26 75.4283 246.928V229.698C75.4283 229.452 75.6219 229.263 75.8688 229.263H77.7905C78.0297 229.263 78.2272 229.452 78.2272 229.698V246.935C78.2272 249.934 76.5866 251.657 73.7345 251.657C72.8572 251.657 72.166 251.657 70.2368 250.71L66.2567 248.423C65.2731 247.855 64.6655 246.795 64.6655 245.663V228.206C64.6655 227.07 65.2731 226.01 66.2567 225.45L81.4439 216.714C82.4047 216.172 83.6808 216.172 84.634 216.714L99.8022 225.454C100.782 226.018 101.393 227.074 101.393 228.21V245.667C101.393 246.799 100.782 247.855 99.8022 248.423L84.634 257.159C84.1479 257.439 83.5972 257.583 83.0351 257.583" fill="#689F63"/>
<path d="M87.723 245.562C81.0846 245.562 79.6927 242.524 79.6927 239.976C79.6927 239.733 79.8887 239.54 80.1321 239.54H82.0917C82.3082 239.54 82.4905 239.697 82.5247 239.911C82.8209 241.902 83.702 242.906 87.7162 242.906C90.9139 242.906 92.2735 242.186 92.2735 240.495C92.2735 239.522 91.8861 238.798 86.9187 238.314C82.7639 237.905 80.1967 236.992 80.1967 233.679C80.1967 230.627 82.7791 228.809 87.1047 228.809C91.962 228.809 94.3698 230.491 94.6736 234.103C94.685 234.228 94.6395 234.349 94.5559 234.44C94.4724 234.527 94.3546 234.58 94.2331 234.58H92.2621C92.057 234.58 91.8785 234.436 91.8367 234.239C91.362 232.145 90.2151 231.475 87.0971 231.475C83.607 231.475 83.2007 232.687 83.2007 233.596C83.2007 234.697 83.6792 235.019 88.3884 235.64C93.052 236.258 95.2661 237.129 95.2661 240.396C95.2661 243.691 92.5089 245.58 87.701 245.58L87.723 245.562ZM106.181 227.067H106.69C107.107 227.067 107.187 226.776 107.187 226.605C107.187 226.159 106.88 226.159 106.709 226.159H106.185L106.181 227.067ZM105.562 225.636H106.69C107.077 225.636 107.837 225.636 107.837 226.499C107.837 227.102 107.449 227.226 107.218 227.302C107.67 227.332 107.7 227.628 107.761 228.044C107.791 228.306 107.84 228.756 107.932 228.908H107.237C107.218 228.756 107.111 227.923 107.111 227.878C107.066 227.692 107.001 227.601 106.769 227.601H106.196V228.912H105.562V225.636ZM104.206 227.264C104.206 228.62 105.304 229.718 106.652 229.718C108.011 229.718 109.109 228.597 109.109 227.264C109.109 225.905 107.996 224.826 106.648 224.826C105.319 224.826 104.202 225.89 104.202 227.261L104.206 227.264ZM109.58 227.272C109.58 228.877 108.262 230.188 106.656 230.188C105.06 230.188 103.731 228.893 103.731 227.272C103.731 225.621 105.091 224.356 106.656 224.356C108.232 224.356 109.576 225.625 109.576 227.272" fill="#689F63"/>
<path fill-rule="evenodd" clip-rule="evenodd" d="M36.0542 189.288C36.0542 188.591 35.6858 187.951 35.0828 187.605L18.9971 178.377C18.7255 178.218 18.4213 178.134 18.1129 178.123H17.9466C17.6382 178.134 17.334 178.218 17.0579 178.377L0.972981 187.605C0.373698 187.953 0 188.593 0 189.29L0.035319 214.145C0.035319 214.49 0.213813 214.812 0.517632 214.982C0.813856 215.164 1.18603 215.164 1.48226 214.982L11.045 209.522C11.6488 209.163 12.0172 208.53 12.0172 207.84V196.229C12.0172 195.536 12.3856 194.896 12.9875 194.551L17.0587 192.213C17.361 192.039 17.6929 191.953 18.0309 191.953C18.3636 191.953 18.7031 192.038 18.9971 192.213L23.0663 194.55C23.6687 194.895 24.0386 195.535 24.0386 196.228V207.839C24.0386 208.528 24.4119 209.164 25.0127 209.52L34.5693 214.976C34.8693 215.154 35.2426 215.154 35.5415 214.976C35.8362 214.806 36.0231 214.484 36.0231 214.139L36.0542 189.288ZM111.959 202.229C111.959 202.402 111.867 202.562 111.716 202.648L106.191 205.823C106.041 205.909 105.856 205.909 105.706 205.823L100.18 202.648C100.028 202.562 99.9371 202.402 99.9371 202.229V195.869C99.9371 195.696 100.028 195.536 100.176 195.449L105.698 192.268C105.85 192.181 106.036 192.181 106.188 192.268L111.714 195.449C111.866 195.536 111.957 195.696 111.957 195.869L111.959 202.229ZM113.451 155.123C113.15 154.955 112.783 154.96 112.485 155.133C112.189 155.307 112.006 155.625 112.006 155.97V180.583C112.006 180.825 111.877 181.049 111.666 181.17C111.458 181.291 111.197 181.291 110.987 181.17L106.957 178.856C106.357 178.51 105.618 178.51 105.016 178.856L88.9248 188.115C88.3237 188.46 87.9526 189.1 87.9526 189.789V208.313C87.9526 209.006 88.3237 209.642 88.9248 209.99L105.016 219.256C105.617 219.601 106.356 219.601 106.959 219.256L123.05 209.987C123.65 209.638 124.022 209.002 124.022 208.309V162.143C124.022 161.44 123.639 160.793 123.024 160.45L113.451 155.123ZM167.035 195.702C167.633 195.356 168.001 194.716 168.001 194.027V189.538C168.001 188.847 167.632 188.21 167.033 187.862L151.045 178.608C150.441 178.259 149.7 178.259 149.097 178.608L133.009 187.866C132.406 188.214 132.037 188.85 132.037 189.543V208.06C132.037 208.757 132.413 209.401 133.017 209.745L149.002 218.829C149.59 219.166 150.312 219.17 150.908 218.841L160.577 213.483C160.881 213.312 161.075 212.99 161.075 212.642C161.075 212.294 160.889 211.968 160.585 211.797L144.399 202.535C144.095 202.365 143.909 202.043 143.909 201.699V195.89C143.909 195.543 144.091 195.223 144.395 195.051L149.431 192.154C149.731 191.98 150.099 191.98 150.399 192.154L155.439 195.051C155.739 195.221 155.925 195.543 155.925 195.888V200.454C155.925 200.799 156.111 201.121 156.411 201.295C156.711 201.465 157.083 201.465 157.383 201.291L167.035 195.702Z" fill="#333333"/>
<path fill-rule="evenodd" clip-rule="evenodd" d="M149.835 194.835C149.949 194.768 150.092 194.768 150.208 194.835L153.295 196.611C153.411 196.678 153.481 196.8 153.481 196.933V200.489C153.481 200.621 153.411 200.744 153.295 200.81L150.208 202.586C150.092 202.653 149.949 202.653 149.835 202.586L146.75 200.81C146.632 200.744 146.56 200.621 146.56 200.489V196.933C146.56 196.8 146.628 196.678 146.746 196.611L149.835 194.835Z" fill="#689F63"/>
<path d="M96.1047 186.344L51.0198 164.31L27.903 211.33L72.9867 233.365L96.1047 186.344Z" fill="url(#paint0_linear)"/>
<path d="M24.9757 192.862L56.8102 235.822L98.912 204.807L67.0755 161.848L24.9757 192.862Z" fill="url(#paint1_linear)"/>
<path d="M45.0847 178.446V219.126H79.9035V178.446H45.0847Z" fill="url(#paint2_linear)"/>
<defs>
<linearGradient id="paint0_linear" x1="73.5487" y1="175.292" x2="50.5424" y2="222.363" gradientUnits="userSpaceOnUse">
<stop offset="0.3" stop-color="#3E863D"/>
<stop offset="0.5" stop-color="#55934F"/>
<stop offset="0.8" stop-color="#5AAD45"/>
</linearGradient>
<linearGradient id="paint1_linear" x1="41.0837" y1="214.588" x2="83.0999" y2="183.452" gradientUnits="userSpaceOnUse">
<stop offset="0.57" stop-color="#3E863D"/>
<stop offset="0.72" stop-color="#619857"/>
<stop offset="1" stop-color="#76AC64"/>
</linearGradient>
<linearGradient id="paint2_linear" x1="45.0964" y1="198.787" x2="79.9101" y2="198.787" gradientUnits="userSpaceOnUse">
<stop offset="0.16" stop-color="#6BBF47"/>
<stop offset="0.38" stop-color="#79B461"/>
<stop offset="0.47" stop-color="#75AC64"/>
<stop offset="0.7" stop-color="#659E5A"/>
<stop offset="0.9" stop-color="#3E863D"/>
</linearGradient>
</defs>
</svg>
