<svg width="409" height="302" viewBox="0 0 409 302" fill="none" xmlns="http://www.w3.org/2000/svg">
<g clip-path="url(#clip0)">
<path opacity="0.1" d="M4.4176 160.719C10.8894 188.456 24.5899 212.432 46.2421 224.053C91.2392 248.205 192.719 235.75 268.458 221.437C306.728 214.229 341.466 194.316 367.078 164.906L4.4176 160.719Z" fill="#6C63FF"/>
<path opacity="0.1" d="M401.581 30.1701H360.025C359.073 30.1701 358.159 29.7907 357.485 29.1152C356.812 28.4398 356.433 27.5237 356.433 26.5685C356.433 25.6133 356.812 24.6972 357.485 24.0217C358.159 23.3463 359.073 22.9668 360.025 22.9668H367.209C366.256 22.9668 365.343 22.5874 364.669 21.9119C363.996 21.2365 363.617 20.3204 363.617 19.3652C363.617 18.41 363.996 17.4939 364.669 16.8184C365.343 16.143 366.256 15.7635 367.209 15.7635H362.079C361.127 15.7635 360.213 15.3841 359.539 14.7086C358.866 14.0332 358.487 13.1171 358.487 12.1619C358.487 11.2067 358.866 10.2906 359.539 9.61514C360.213 8.93971 361.127 8.56025 362.079 8.56025H383.769C378.956 6.31739 373.33 4.72123 366.851 3.8839C307.71 -3.73432 286.595 1.30462 279.146 6.50056C269.956 12.8927 259.704 17.5952 248.748 19.8605C212.258 27.4077 144.017 36.4912 82.1654 16.9523C51.4242 7.23323 28.5752 23.6509 14.8823 51.0735H408.795C408.281 43.1039 406.741 35.7473 403.915 29.3029C403.266 29.8632 402.438 30.171 401.581 30.1701Z" fill="#6C63FF"/>
<path opacity="0.1" d="M0.891025 102.835C-0.705272 118.965 -0.163729 135.236 2.50153 151.224L367.354 164.603C377.511 152.888 386.038 139.848 392.705 125.839L0.891025 102.835ZM145.195 137.356H138.011C138.964 137.356 139.877 137.735 140.551 138.411C141.224 139.086 141.603 140.002 141.603 140.958C141.603 141.913 141.224 142.829 140.551 143.504C139.877 144.18 138.964 144.559 138.011 144.559H96.4548C95.5022 144.559 94.5886 144.18 93.915 143.504C93.2413 142.829 92.8629 141.913 92.8629 140.958C92.8629 140.002 93.2413 139.086 93.915 138.411C94.5886 137.735 95.5022 137.356 96.4548 137.356H103.639C102.686 137.356 101.772 136.977 101.099 136.301C100.425 135.626 100.047 134.71 100.047 133.754C100.047 132.799 100.425 131.883 101.099 131.208C101.772 130.532 102.686 130.153 103.639 130.153H98.509C97.5563 130.153 96.6427 129.773 95.9691 129.098C95.2955 128.422 94.917 127.506 94.917 126.551C94.917 125.596 95.2955 124.68 95.9691 124.004C96.6427 123.329 97.5563 122.949 98.509 122.949H140.065C141.018 122.949 141.931 123.329 142.605 124.004C143.279 124.68 143.657 125.596 143.657 126.551C143.657 127.506 143.279 128.422 142.605 129.098C141.931 129.773 141.018 130.153 140.065 130.153H145.195C146.147 130.153 147.061 130.532 147.735 131.208C148.408 131.883 148.787 132.799 148.787 133.754C148.787 134.71 148.408 135.626 147.735 136.301C147.061 136.977 146.147 137.356 145.195 137.356V137.356Z" fill="#6C63FF"/>
<path opacity="0.1" d="M408.814 51.3201L10.4794 61.0391C5.63673 73.5243 2.44183 87.6431 0.950623 102.281H401.835C404.452 93.6847 406.388 84.894 407.624 75.9914C408.817 67.3864 409.294 59.0691 408.814 51.3201ZM81.8186 83.1536H74.6347C75.5874 83.1536 76.501 83.5331 77.1746 84.2085C77.8482 84.884 78.2267 85.8001 78.2267 86.7553C78.2267 87.7105 77.8482 88.6266 77.1746 89.302C76.501 89.9775 75.5874 90.3569 74.6347 90.3569H33.0786C32.126 90.3569 31.2123 89.9775 30.5387 89.302C29.8651 88.6266 29.4867 87.7105 29.4867 86.7553C29.4867 85.8001 29.8651 84.884 30.5387 84.2085C31.2123 83.5331 32.126 83.1536 33.0786 83.1536H40.2625C39.3098 83.1536 38.3962 82.7742 37.7226 82.0987C37.049 81.4233 36.6706 80.5072 36.6706 79.552C36.6706 78.5968 37.049 77.6807 37.7226 77.0052C38.3962 76.3298 39.3098 75.9503 40.2625 75.9503H35.1327C34.1801 75.9503 33.2665 75.5709 32.5929 74.8954C31.9192 74.22 31.5408 73.3039 31.5408 72.3487C31.5408 71.3935 31.9192 70.4774 32.5929 69.8019C33.2665 69.1265 34.1801 68.747 35.1327 68.747H76.6889C77.6415 68.747 78.5551 69.1265 79.2288 69.8019C79.9024 70.4774 80.2808 71.3935 80.2808 72.3487C80.2808 73.3039 79.9024 74.22 79.2288 74.8954C78.5551 75.5709 77.6415 75.9503 76.6889 75.9503H81.8186C82.7713 75.9503 83.6849 76.3298 84.3585 77.0052C85.0321 77.6807 85.4106 78.5968 85.4106 79.552C85.4106 80.5072 85.0321 81.4233 84.3585 82.0987C83.6849 82.7742 82.7713 83.1536 81.8186 83.1536V83.1536Z" fill="#6C63FF"/>
<g opacity="0.1">
<path opacity="0.1" d="M252.591 232.988C252.591 232.988 263.104 207.008 282.736 197.371C290.999 193.387 297.751 186.822 301.976 178.662C303.95 174.769 305.564 170.702 306.797 166.513" stroke="#535461" stroke-width="2" stroke-miterlimit="10"/>
<path opacity="0.1" d="M319.133 160.364C317.086 162.943 306.495 166.719 306.495 166.719C306.495 166.719 307.77 155.504 309.816 152.944C310.832 151.811 312.241 151.11 313.755 150.984C315.269 150.857 316.774 151.315 317.963 152.263C319.152 153.211 319.936 154.578 320.154 156.086C320.372 157.593 320.008 159.127 319.136 160.375L319.133 160.364Z" fill="#6C63FF"/>
<path opacity="0.1" d="M315.498 180.796C312.381 181.847 301.451 179.234 301.451 179.234C301.451 179.234 308.59 170.532 311.706 169.481C313.171 169.092 314.728 169.276 316.062 169.995C317.396 170.715 318.407 171.917 318.89 173.357C319.372 174.797 319.29 176.368 318.66 177.749C318.03 179.131 316.9 180.22 315.498 180.796V180.796Z" fill="#6C63FF"/>
<path opacity="0.1" d="M295.792 204.945C292.574 204.275 284.451 196.485 284.451 196.485C284.451 196.485 294.994 192.586 298.215 193.255C299.672 193.663 300.921 194.61 301.708 195.906C302.495 197.202 302.761 198.749 302.453 200.234C302.145 201.72 301.286 203.032 300.049 203.906C298.812 204.78 297.29 205.15 295.792 204.941V204.945Z" fill="#6C63FF"/>
<path opacity="0.1" d="M276.779 219.852C273.494 219.736 264.174 213.437 264.174 213.437C264.174 213.437 273.912 207.819 277.196 207.924C278.012 207.898 278.825 208.041 279.584 208.343C280.343 208.645 281.032 209.1 281.608 209.681C282.185 210.261 282.636 210.953 282.934 211.715C283.233 212.478 283.372 213.293 283.344 214.111C283.315 214.93 283.119 215.733 282.768 216.473C282.417 217.212 281.918 217.871 281.303 218.409C280.687 218.947 279.968 219.353 279.19 219.601C278.412 219.849 277.591 219.935 276.779 219.852V219.852Z" fill="#6C63FF"/>
<path opacity="0.1" d="M291.273 171.933C291.694 175.204 298.811 183.921 298.811 183.921C298.811 183.921 303.497 173.679 303.08 170.408C302.789 168.918 301.943 167.594 300.714 166.706C299.486 165.818 297.966 165.432 296.464 165.626C294.962 165.82 293.59 166.58 292.626 167.751C291.662 168.923 291.178 170.418 291.273 171.933Z" fill="#6C63FF"/>
<path opacity="0.1" d="M269.255 189.648C270.631 192.638 280.026 198.825 280.026 198.825C280.026 198.825 281.442 187.644 280.067 184.654C279.774 183.891 279.327 183.196 278.756 182.612C278.184 182.029 277.5 181.569 276.744 181.261C275.988 180.954 275.177 180.805 274.362 180.824C273.547 180.843 272.744 181.029 272.003 181.372C271.262 181.714 270.599 182.205 270.056 182.815C269.512 183.424 269.098 184.139 268.841 184.915C268.583 185.691 268.487 186.512 268.558 187.326C268.63 188.141 268.867 188.933 269.255 189.652V189.648Z" fill="#6C63FF"/>
<path opacity="0.1" d="M250.213 209.811C251.063 212.996 259.283 220.682 259.283 220.682C259.283 220.682 262.564 209.905 261.71 206.72C261.222 205.283 260.207 204.087 258.872 203.372C257.537 202.658 255.981 202.479 254.519 202.872C253.057 203.265 251.799 204.201 250.999 205.489C250.2 206.778 249.919 208.323 250.213 209.811Z" fill="#6C63FF"/>
<path opacity="0.25" d="M319.133 160.364C317.086 162.943 306.495 166.719 306.495 166.719C306.495 166.719 307.77 155.504 309.816 152.944C310.832 151.811 312.241 151.11 313.755 150.984C315.269 150.857 316.774 151.315 317.963 152.263C319.152 153.211 319.936 154.578 320.154 156.086C320.372 157.593 320.008 159.127 319.136 160.375L319.133 160.364Z" fill="black"/>
<path opacity="0.25" d="M315.498 180.796C312.381 181.847 301.451 179.234 301.451 179.234C301.451 179.234 308.59 170.532 311.706 169.481C313.171 169.092 314.728 169.276 316.062 169.995C317.396 170.715 318.407 171.917 318.89 173.357C319.372 174.797 319.29 176.368 318.66 177.749C318.03 179.131 316.9 180.22 315.498 180.796V180.796Z" fill="black"/>
<path opacity="0.25" d="M295.792 204.945C292.574 204.275 284.451 196.485 284.451 196.485C284.451 196.485 294.994 192.586 298.215 193.255C299.672 193.663 300.921 194.61 301.708 195.906C302.495 197.202 302.761 198.749 302.453 200.234C302.145 201.72 301.286 203.032 300.049 203.906C298.812 204.78 297.29 205.15 295.792 204.941V204.945Z" fill="black"/>
<path opacity="0.25" d="M276.779 219.852C273.494 219.736 264.174 213.437 264.174 213.437C264.174 213.437 273.912 207.819 277.196 207.924C278.012 207.898 278.825 208.041 279.584 208.343C280.343 208.645 281.032 209.1 281.608 209.681C282.185 210.261 282.636 210.953 282.934 211.715C283.233 212.478 283.372 213.293 283.344 214.111C283.315 214.93 283.119 215.733 282.768 216.473C282.417 217.212 281.918 217.871 281.303 218.409C280.687 218.947 279.968 219.353 279.19 219.601C278.412 219.849 277.591 219.935 276.779 219.852V219.852Z" fill="black"/>
<path opacity="0.25" d="M291.273 171.933C291.694 175.204 298.811 183.921 298.811 183.921C298.811 183.921 303.497 173.679 303.08 170.408C302.789 168.918 301.943 167.594 300.714 166.706C299.486 165.818 297.966 165.432 296.464 165.626C294.962 165.82 293.59 166.58 292.626 167.751C291.662 168.923 291.178 170.418 291.273 171.933Z" fill="black"/>
<path opacity="0.25" d="M269.255 189.648C270.631 192.638 280.026 198.825 280.026 198.825C280.026 198.825 281.442 187.644 280.067 184.654C279.774 183.891 279.327 183.196 278.756 182.612C278.184 182.029 277.5 181.569 276.744 181.261C275.988 180.954 275.177 180.805 274.362 180.824C273.547 180.843 272.744 181.029 272.003 181.372C271.262 181.714 270.599 182.205 270.056 182.815C269.512 183.424 269.098 184.139 268.841 184.915C268.583 185.691 268.487 186.512 268.558 187.326C268.63 188.141 268.867 188.933 269.255 189.652V189.648Z" fill="black"/>
<path opacity="0.25" d="M250.213 209.811C251.063 212.996 259.283 220.682 259.283 220.682C259.283 220.682 262.564 209.905 261.71 206.72C261.222 205.283 260.207 204.087 258.872 203.372C257.537 202.658 255.981 202.479 254.519 202.872C253.057 203.265 251.799 204.201 250.999 205.489C250.2 206.778 249.919 208.323 250.213 209.811Z" fill="black"/>
</g>
<g opacity="0.1">
<path opacity="0.1" d="M245.135 195.001C245.135 195.001 246.463 166.995 261.796 151.374C268.263 144.86 272.449 136.42 273.726 127.319C274.3 122.993 274.479 118.624 274.259 114.266" stroke="#535461" stroke-width="2" stroke-miterlimit="10"/>
<path opacity="0.1" d="M283.907 104.364C282.829 107.477 274.083 114.554 274.083 114.554C274.083 114.554 271.586 103.567 272.663 100.453C272.877 99.6614 273.251 98.922 273.761 98.281C274.272 97.6401 274.909 97.1114 275.633 96.7278C276.356 96.3443 277.15 96.1141 277.966 96.0516C278.782 95.989 279.602 96.0955 280.375 96.3644C281.149 96.6332 281.858 97.0587 282.46 97.6144C283.062 98.17 283.544 98.8439 283.875 99.5942C284.206 100.345 284.38 101.155 284.386 101.976C284.391 102.796 284.228 103.609 283.907 104.364V104.364Z" fill="#6C63FF"/>
<path opacity="0.1" d="M287.217 124.833C284.607 126.859 273.446 128.033 273.446 128.033C273.446 128.033 277.304 117.447 279.895 115.421C280.505 114.877 281.219 114.465 281.994 114.209C282.769 113.954 283.587 113.86 284.4 113.934C285.212 114.008 286 114.249 286.716 114.64C287.432 115.032 288.06 115.567 288.562 116.212C289.064 116.857 289.428 117.598 289.633 118.39C289.837 119.181 289.878 120.007 289.752 120.815C289.626 121.623 289.336 122.396 288.9 123.087C288.464 123.779 287.891 124.373 287.217 124.833V124.833Z" fill="#6C63FF"/>
<path opacity="0.1" d="M276.611 154.185C273.353 154.622 263.116 149.976 263.116 149.976C263.116 149.976 271.776 142.791 275.045 142.354C275.845 142.193 276.669 142.198 277.467 142.369C278.265 142.541 279.019 142.874 279.683 143.349C280.348 143.825 280.907 144.431 281.328 145.132C281.749 145.833 282.022 146.613 282.131 147.424C282.239 148.234 282.18 149.059 281.958 149.846C281.736 150.633 281.355 151.366 280.839 152C280.323 152.634 279.683 153.155 278.958 153.53C278.234 153.906 277.44 154.129 276.626 154.185H276.611Z" fill="#6C63FF"/>
<path opacity="0.1" d="M263.604 174.568C260.465 175.552 249.59 172.699 249.59 172.699C249.59 172.699 256.912 164.15 260.051 163.167C261.524 162.807 263.079 163.023 264.399 163.77C265.719 164.518 266.706 165.742 267.158 167.193C267.611 168.644 267.495 170.213 266.835 171.582C266.175 172.951 265.019 174.016 263.604 174.561V174.568Z" fill="#6C63FF"/>
<path opacity="0.1" d="M261.431 124.542C262.922 127.487 272.51 133.345 272.51 133.345C272.51 133.345 273.543 122.131 272.067 119.178C271.301 117.865 270.065 116.895 268.611 116.463C267.157 116.032 265.593 116.172 264.238 116.855C262.883 117.539 261.839 118.714 261.318 120.141C260.796 121.569 260.836 123.143 261.431 124.542V124.542Z" fill="#6C63FF"/>
<path opacity="0.1" d="M246.518 148.578C248.807 150.944 259.716 153.654 259.716 153.654C259.716 153.654 257.356 142.638 255.067 140.272C253.944 139.248 252.475 138.692 250.958 138.716C249.442 138.74 247.991 139.343 246.902 140.402C245.812 141.461 245.166 142.896 245.095 144.416C245.024 145.935 245.533 147.425 246.518 148.581V148.578Z" fill="#6C63FF"/>
<path opacity="0.1" d="M235.223 173.929C237.087 176.651 247.376 181.17 247.376 181.17C247.376 181.17 246.906 169.911 245.05 167.189C244.11 166.01 242.761 165.23 241.273 165.007C239.784 164.783 238.267 165.131 237.024 165.983C235.781 166.834 234.905 168.125 234.572 169.597C234.238 171.068 234.472 172.612 235.226 173.918L235.223 173.929Z" fill="#6C63FF"/>
</g>
<path opacity="0.1" d="M111.743 289.986C126.402 294.927 144.285 291.922 160.916 292.27C163.194 292.318 165.602 292.46 167.429 293.313C169.255 294.165 170.154 295.555 171.406 296.733C176.066 301.14 185.614 302.557 193.961 301.809C202.308 301.062 209.962 298.587 217.82 296.703C231.435 293.443 246.999 291.963 260.428 295.514C261.662 295.84 262.959 296.213 264.279 296.086C267.224 295.795 268.1 293.432 270.158 292.083C273.886 289.646 281.949 290.307 283.579 287.096C284.537 285.227 282.333 283.283 279.936 281.997C270.758 277.078 257.628 276.267 245.616 277.026C233.605 277.785 221.794 279.878 209.719 279.885C194.677 279.885 180.141 276.674 165.244 275.359C154.925 274.447 143.663 274.559 133.988 277.228C123.531 280.151 121.22 286.67 111.743 289.986Z" fill="#6C63FF"/>
<path d="M138.872 69.1172H136.263V106.124H138.872V69.1172Z" fill="#535461"/>
<path d="M138.872 118.834H136.263V139.767H138.872V118.834Z" fill="#535461"/>
<path d="M238 32.8579H155.685C145.988 32.8579 138.126 40.7406 138.126 50.4643V270.937C138.126 280.66 145.988 288.543 155.685 288.543H238C247.697 288.543 255.559 280.66 255.559 270.937V50.4643C255.559 40.7406 247.697 32.8579 238 32.8579Z" fill="#535461"/>
<path d="M238 44.8198H155.685C145.988 44.8198 138.126 52.7025 138.126 62.4262V260.096C138.126 269.82 145.988 277.703 155.685 277.703H238C247.697 277.703 255.559 269.82 255.559 260.096V62.4262C255.559 52.7025 247.697 44.8198 238 44.8198Z" fill="#34A853"/>
<path d="M205.417 38.4651H188.641C187.92 38.4651 187.336 39.0508 187.336 39.7734C187.336 40.496 187.92 41.0817 188.641 41.0817H205.417C206.138 41.0817 206.722 40.496 206.722 39.7734C206.722 39.0508 206.138 38.4651 205.417 38.4651Z" fill="#EAEAF3"/>
<path d="M213.432 41.8292C214.462 41.8292 215.296 40.9924 215.296 39.9601C215.296 38.9279 214.462 38.0911 213.432 38.0911C212.403 38.0911 211.568 38.9279 211.568 39.9601C211.568 40.9924 212.403 41.8292 213.432 41.8292Z" fill="#EAEAF3"/>
<path d="M166.385 148.066V175.354C166.394 176.209 166.234 177.058 165.913 177.851C165.592 178.644 165.118 179.365 164.516 179.972C163.915 180.58 163.2 181.061 162.411 181.389C161.623 181.716 160.778 181.883 159.924 181.88C156.33 181.88 152.841 178.961 152.841 175.354V148.066C152.841 144.507 156.319 141.588 159.924 141.588C161.636 141.594 163.275 142.279 164.485 143.493C165.695 144.706 166.378 146.35 166.385 148.066V148.066ZM168.924 185.05C168.922 185.966 169.1 186.874 169.449 187.72C169.798 188.567 170.31 189.336 170.956 189.984C171.602 190.632 172.369 191.145 173.213 191.495C174.058 191.845 174.963 192.024 175.876 192.022H180.551L180.622 206.417C180.622 215.108 193.592 215.041 193.592 206.417V192.026H202.33V206.421C202.33 215.067 215.378 215.09 215.378 206.421V192.026H220.124C221.034 192.023 221.935 191.84 222.775 191.488C223.614 191.136 224.377 190.622 225.018 189.974C225.66 189.327 226.168 188.559 226.513 187.715C226.859 186.871 227.035 185.967 227.032 185.054V142.776H168.924V185.05ZM227.189 140.503H168.659C168.659 130.411 174.672 121.656 183.601 117.088L179.127 108.771C178.471 107.616 180.137 106.902 180.7 107.877L185.26 116.266C189.271 114.506 193.603 113.597 197.982 113.597C202.36 113.597 206.692 114.506 210.703 116.266L215.237 107.904C215.826 106.891 217.473 107.646 216.81 108.797L212.336 117.088C221.175 121.656 227.189 130.422 227.189 140.503ZM187.083 127.42C187.083 126.764 186.823 126.134 186.36 125.67C185.897 125.206 185.269 124.946 184.615 124.946C183.977 124.97 183.374 125.242 182.932 125.703C182.49 126.164 182.243 126.779 182.243 127.418C182.243 128.058 182.49 128.673 182.932 129.134C183.374 129.595 183.977 129.866 184.615 129.891C185.267 129.891 185.893 129.632 186.356 129.17C186.818 128.709 187.08 128.082 187.083 127.428V127.42ZM213.727 127.42C213.719 126.938 213.57 126.47 213.297 126.073C213.024 125.677 212.64 125.37 212.193 125.192C211.746 125.015 211.257 124.974 210.787 125.075C210.317 125.176 209.888 125.414 209.553 125.76C209.218 126.105 208.993 126.543 208.906 127.017C208.819 127.491 208.874 127.98 209.064 128.422C209.254 128.865 209.571 129.241 209.974 129.503C210.378 129.765 210.849 129.901 211.33 129.895C211.972 129.88 212.583 129.613 213.031 129.152C213.479 128.691 213.729 128.072 213.727 127.428V127.42ZM235.998 141.58C235.149 141.578 234.308 141.743 233.523 142.068C232.738 142.393 232.025 142.87 231.424 143.472C230.824 144.074 230.348 144.789 230.024 145.576C229.7 146.363 229.535 147.207 229.537 148.058V175.346C229.534 176.2 229.698 177.046 230.021 177.837C230.344 178.627 230.819 179.346 231.419 179.952C232.019 180.558 232.732 181.039 233.518 181.369C234.304 181.699 235.146 181.87 235.998 181.873C239.618 181.873 243.081 178.953 243.081 175.346V148.058C243.07 144.44 239.592 141.588 235.998 141.588V141.58Z" fill="white"/>
<path d="M193.487 212.869H169.255V213.991H193.487V212.869Z" fill="#535461"/>
<path d="M218.465 212.869H202.435V213.991H218.465V212.869Z" fill="#535461"/>
<path d="M164.036 212.869H148.006V213.991H164.036V212.869Z" fill="#535461"/>
<path d="M243.816 212.869H227.785V213.991H243.816V212.869Z" fill="#535461"/>
</g>
<defs>
<clipPath id="clip0">
<rect width="409" height="302" fill="white"/>
</clipPath>
</defs>
</svg>
