<svg width="455" height="284" viewBox="0 0 455 284" fill="none" xmlns="http://www.w3.org/2000/svg">
<path d="M450.065 90.2288L350.053 283.736L94.9029 235.4L94.3995 235.307L79.9374 232.566L14.9486 220.253L0 217.423L20.714 175.361L24.2079 168.267L27.4904 161.609L27.7865 161.004L33.2854 149.837L56.5289 102.644L57.6963 100.271L59.3164 96.984L59.6886 96.2268L60.5177 94.5391L65.2341 84.9667L73.7109 67.7594L75.1871 64.7603L81.8874 51.1526L107.081 0L450.065 90.2288Z" fill="#3F3D56"/>
<path d="M220.605 76.3178C209.282 64.9956 193.926 58.6348 177.914 58.6348C161.902 58.6348 146.546 64.9956 135.223 76.3178C123.901 87.6401 117.54 102.996 117.54 119.009C117.54 135.021 123.901 150.377 135.223 161.699L220.605 247.081L305.986 161.699C317.308 150.377 323.669 135.021 323.669 119.009C323.669 102.996 317.308 87.6401 305.986 76.3178C294.664 64.9956 279.308 58.6348 263.295 58.6348C247.283 58.6348 231.927 64.9956 220.605 76.3178Z" fill="#0371B4"/>
<path d="M330.393 163.853L329.795 163.255L331.29 161.758L329.795 160.263L330.393 159.665L332.487 161.758L330.393 163.853Z" fill="#D0CDE1"/>
<path d="M252.157 242.089L251.559 241.491L255.115 237.935L255.713 238.533L252.157 242.089ZM259.269 234.977L258.671 234.378L262.227 230.822L262.825 231.42L259.269 234.977ZM266.382 227.864L265.783 227.266L269.34 223.71L269.938 224.308L266.382 227.864ZM273.494 220.752L272.896 220.154L276.452 216.597L277.05 217.196L273.494 220.752ZM280.606 213.639L280.008 213.041L283.564 209.485L284.163 210.083L280.606 213.639ZM287.719 206.527L287.121 205.929L290.677 202.373L291.275 202.971L287.719 206.527ZM294.831 199.415L294.233 198.816L297.789 195.261L298.387 195.859L294.831 199.415ZM301.943 192.303L301.345 191.704L304.901 188.148L305.499 188.746L301.943 192.303ZM309.056 185.19L308.457 184.592L312.014 181.036L312.612 181.634L309.056 185.19ZM316.168 178.078L315.57 177.48L319.126 173.923L319.724 174.522L316.168 178.078ZM323.28 170.965L322.682 170.367L326.238 166.811L326.837 167.409L323.28 170.965Z" fill="#D0CDE1"/>
<path d="M246.507 247.738L244.413 245.645L245.012 245.047L246.507 246.542L248.003 245.047L248.601 245.645L246.507 247.738Z" fill="#D0CDE1"/>
<path d="M240.857 242.089L237.301 238.533L237.899 237.935L241.455 241.491L240.857 242.089ZM233.745 234.977L230.189 231.42L230.787 230.822L234.343 234.378L233.745 234.977ZM226.633 227.864L223.076 224.308L223.675 223.71L227.231 227.266L226.633 227.864ZM219.52 220.752L215.964 217.196L216.562 216.597L220.118 220.154L219.52 220.752ZM212.408 213.639L208.852 210.083L209.45 209.485L213.006 213.041L212.408 213.639ZM205.296 206.527L201.74 202.971L202.338 202.373L205.894 205.929L205.296 206.527ZM198.183 199.415L194.627 195.859L195.225 195.261L198.781 198.817L198.183 199.415ZM191.071 192.303L187.515 188.746L188.113 188.148L191.669 191.704L191.071 192.303ZM183.958 185.19L180.402 181.634L181 181.036L184.557 184.592L183.958 185.19ZM176.846 178.078L173.29 174.522L173.888 173.923L177.444 177.48L176.846 178.078ZM169.734 170.965L166.178 167.409L166.776 166.811L170.332 170.367L169.734 170.965Z" fill="#D0CDE1"/>
<path d="M162.621 163.853L160.527 161.758L162.621 159.665L163.219 160.263L161.724 161.758L163.219 163.255L162.621 163.853Z" fill="#D0CDE1"/>
<path d="M166.776 156.708L166.177 156.11L169.734 152.553L170.332 153.152L166.776 156.708ZM173.888 149.595L173.29 148.997L176.846 145.441L177.444 146.039L173.888 149.595ZM181 142.483L180.402 141.885L183.958 138.329L184.556 138.927L181 142.483ZM188.113 135.371L187.515 134.773L191.071 131.216L191.669 131.814L188.113 135.371ZM195.225 128.258L194.627 127.66L198.183 124.104L198.781 124.702L195.225 128.258ZM202.337 121.146L201.739 120.548L205.296 116.992L205.894 117.59L202.337 121.146ZM209.45 114.033L208.852 113.435L212.408 109.879L213.006 110.477L209.45 114.033ZM216.562 106.921L215.964 106.323L219.52 102.767L220.118 103.365L216.562 106.921ZM223.675 99.8088L223.076 99.2107L226.633 95.6545L227.231 96.2526L223.675 99.8088ZM230.787 92.6964L230.189 92.0983L233.745 88.5421L234.343 89.1402L230.787 92.6964ZM237.899 85.584L237.301 84.9859L240.857 81.4297L241.456 82.0278L237.899 85.584Z" fill="#D0CDE1"/>
<path d="M248.003 78.4717L246.507 76.976L245.012 78.4717L244.413 77.8732L246.507 75.7798L248.601 77.8732L248.003 78.4717Z" fill="#D0CDE1"/>
<path d="M326.238 156.707L322.682 153.151L323.28 152.553L326.837 156.109L326.238 156.707ZM319.126 149.594L315.57 146.038L316.168 145.44L319.724 148.996L319.126 149.594ZM312.014 142.482L308.457 138.926L309.056 138.328L312.612 141.884L312.014 142.482ZM304.901 135.37L301.345 131.814L301.944 131.216L305.499 134.772L304.901 135.37ZM297.789 128.258L294.233 124.701L294.831 124.103L298.387 127.659L297.789 128.258ZM290.677 121.145L287.121 117.589L287.719 116.991L291.275 120.547L290.677 121.145ZM283.564 114.033L280.008 110.477L280.606 109.879L284.163 113.435L283.564 114.033ZM276.452 106.921L272.896 103.364L273.494 102.766L277.05 106.322L276.452 106.921ZM269.34 99.8082L265.783 96.252L266.382 95.6538L269.938 99.21L269.34 99.8082ZM262.227 92.696L258.671 89.1397L259.269 88.5416L262.825 92.0978L262.227 92.696ZM255.115 85.5836L251.559 82.0273L252.157 81.4292L255.713 84.9854L255.115 85.5836Z" fill="#D0CDE1"/>
<path d="M202.539 179.852C200.827 179.816 199.095 179.707 197.39 179.527L197.479 178.685C199.16 178.863 200.869 178.971 202.557 179.006L202.539 179.852ZM207.699 179.742L207.645 178.897C209.33 178.79 211.033 178.609 212.706 178.36L212.83 179.197C211.135 179.45 209.408 179.633 207.699 179.742V179.742ZM192.286 178.768C190.602 178.444 188.913 178.045 187.265 177.58L187.494 176.765C189.119 177.224 190.785 177.618 192.445 177.937L192.286 178.768ZM217.898 178.221L217.703 177.398C219.35 177.007 220.998 176.542 222.601 176.014L222.865 176.818C221.239 177.352 219.568 177.825 217.898 178.221ZM182.363 175.969C180.759 175.366 179.162 174.686 177.616 173.948L177.98 173.185C179.505 173.912 181.079 174.583 182.66 175.178L182.363 175.969ZM227.695 174.997L227.363 174.219C228.919 173.555 230.464 172.816 231.955 172.023L232.352 172.77C230.84 173.574 229.273 174.324 227.695 174.997ZM173.06 171.528C171.584 170.662 170.127 169.72 168.727 168.729L169.216 168.038C170.596 169.016 172.033 169.944 173.488 170.799L173.06 171.528ZM236.802 170.154L236.343 169.443C237.76 168.526 239.157 167.535 240.495 166.498L241.013 167.166C239.656 168.218 238.24 169.223 236.802 170.154V170.154ZM164.65 165.572C163.344 164.47 162.066 163.296 160.85 162.081L161.448 161.483C162.647 162.681 163.908 163.839 165.195 164.926L164.65 165.572ZM244.955 163.833L244.383 163.21C244.996 162.646 245.61 162.057 246.208 161.46C246.806 160.862 247.402 160.241 247.98 159.611L248.603 160.184C248.017 160.822 247.412 161.452 246.806 162.058C246.2 162.664 245.577 163.261 244.955 163.833V163.833ZM157.355 158.286C156.245 156.974 155.18 155.601 154.19 154.206L154.88 153.716C155.856 155.092 156.906 156.446 158.001 157.739L157.355 158.286ZM251.933 156.241L251.264 155.723C252.3 154.385 253.29 152.989 254.205 151.574L254.915 152.033C253.987 153.469 252.984 154.884 251.933 156.241V156.241ZM151.384 149.872C150.514 148.394 149.698 146.861 148.959 145.315L149.722 144.95C150.451 146.474 151.256 147.986 152.114 149.444L151.384 149.872ZM257.528 147.586L256.781 147.189C257.573 145.698 258.311 144.153 258.974 142.599L259.752 142.931C259.08 144.507 258.331 146.073 257.528 147.586ZM146.932 140.568C146.327 138.964 145.784 137.315 145.318 135.666L146.132 135.436C146.591 137.061 147.127 138.688 147.724 140.27L146.932 140.568ZM261.57 138.102L260.767 137.838C261.294 136.234 261.759 134.586 262.149 132.941L262.972 133.136C262.577 134.805 262.105 136.475 261.57 138.102V138.102ZM144.125 130.645C143.801 128.963 143.544 127.246 143.363 125.54L144.204 125.451C144.383 127.133 144.636 128.827 144.956 130.484L144.125 130.645ZM263.947 128.069L263.11 127.945C263.359 126.273 263.539 124.57 263.646 122.885L264.49 122.938C264.382 124.647 264.199 126.374 263.947 128.069V128.069ZM143.034 120.39C143.024 119.95 143.019 119.509 143.019 119.068C143.019 117.794 143.06 116.503 143.14 115.231L143.984 115.284C143.905 116.538 143.865 117.811 143.865 119.068C143.865 119.503 143.87 119.937 143.88 120.372L143.034 120.39ZM263.754 117.797C263.718 116.108 263.61 114.4 263.432 112.718L264.273 112.629C264.454 114.334 264.564 116.067 264.6 117.779L263.754 117.797ZM144.517 110.224L143.681 110.1C143.932 108.405 144.259 106.7 144.653 105.032L145.476 105.227C145.088 106.871 144.765 108.553 144.517 110.224ZM262.682 107.684C262.363 106.024 261.968 104.358 261.509 102.732L262.323 102.502C262.789 104.151 263.189 105.84 263.513 107.524L262.682 107.684ZM146.855 100.329L146.052 100.066C146.586 98.4365 147.197 96.8116 147.868 95.2361L148.646 95.5674C147.985 97.1208 147.382 98.7229 146.855 100.329ZM259.921 97.8972C259.324 96.3151 258.653 94.7398 257.925 93.2154L258.688 92.8506C259.427 94.3968 260.108 95.9943 260.712 97.599L259.921 97.8972ZM150.836 90.9767L150.089 90.5801C150.891 89.0682 151.77 87.5714 152.699 86.131L153.41 86.59C152.493 88.0101 151.627 89.4861 150.836 90.9767ZM255.535 88.721C254.679 87.2641 253.749 85.826 252.771 84.4467L253.461 83.9572C254.453 85.3563 255.396 86.8147 256.265 88.2923L255.535 88.721ZM156.349 82.4391L155.679 81.9215C156.726 80.5695 157.845 79.2425 159.007 77.9775L159.63 78.5496C158.484 79.7973 157.38 81.1059 156.349 82.4391ZM249.653 80.4223C248.564 79.1335 247.405 77.8734 246.208 76.6767L246.164 76.632L246.758 76.0298L246.814 76.0866C248.019 77.2917 249.195 78.5694 250.299 79.8762L249.653 80.4223ZM163.226 74.9479L162.652 74.3258C163.916 73.1616 165.242 72.0394 166.593 70.9902L167.112 71.6586C165.779 72.6931 164.472 73.7998 163.226 74.9479ZM242.413 73.1897C241.12 72.0993 239.766 71.0528 238.39 70.079L238.878 69.3883C240.274 70.376 241.647 71.4372 242.958 72.5428L242.413 73.1897ZM171.263 68.711L170.802 68.001C172.24 67.0697 173.737 66.1886 175.251 65.3816L175.649 66.1285C174.156 66.9239 172.68 67.7928 171.263 68.711ZM234.116 67.3212C232.659 66.4666 231.147 65.6648 229.622 64.938L229.987 64.1742C231.533 64.9115 233.066 65.7247 234.544 66.5913L234.116 67.3212ZM180.24 63.9307L179.907 63.1528C181.482 62.4799 183.107 61.8665 184.736 61.3293L185.001 62.1328C183.394 62.6623 181.792 63.2673 180.24 63.9307ZM224.942 62.9469C223.361 62.3529 221.734 61.8198 220.107 61.3619L220.336 60.5477C221.986 61.0118 223.636 61.5526 225.239 62.155L224.942 62.9469ZM189.898 60.7469L189.702 59.9238C191.369 59.5274 193.074 59.198 194.769 58.9444L194.894 59.7809C193.223 60.0312 191.542 60.3561 189.898 60.7469V60.7469ZM215.155 60.1933C213.495 59.8755 211.802 59.6245 210.121 59.4479L210.21 58.6065C211.914 58.7858 213.631 59.04 215.314 59.3626L215.155 60.1933ZM199.955 59.2412L199.901 58.3968C201.612 58.287 203.344 58.2492 205.06 58.2841L205.042 59.13C203.351 59.0954 201.642 59.1328 199.955 59.2412V59.2412Z" fill="#D0CDE1"/>
<path d="M287.921 179.852C286.209 179.817 284.477 179.707 282.771 179.527L282.86 178.686C284.542 178.863 286.25 178.971 287.939 179.006L287.921 179.852ZM293.081 179.742L293.027 178.898C294.713 178.791 296.415 178.61 298.087 178.36L298.212 179.197C296.517 179.45 294.79 179.633 293.081 179.742H293.081ZM277.668 178.768C275.984 178.445 274.294 178.045 272.646 177.58L272.876 176.766C274.501 177.224 276.167 177.618 277.827 177.937L277.668 178.768ZM303.28 178.221L303.085 177.398C304.732 177.007 306.38 176.542 307.982 176.014L308.247 176.818C306.621 177.353 304.95 177.825 303.28 178.221H303.28ZM267.744 175.97C266.141 175.367 264.544 174.686 262.997 173.948L263.362 173.185C264.887 173.913 266.461 174.584 268.042 175.178L267.744 175.97ZM313.077 174.998L312.744 174.22C314.3 173.556 315.845 172.817 317.336 172.024L317.734 172.771C316.221 173.576 314.654 174.325 313.076 174.998H313.077ZM258.441 171.528C256.965 170.662 255.507 169.72 254.109 168.729L254.598 168.039C255.977 169.016 257.414 169.944 258.869 170.799L258.441 171.528ZM322.183 170.154L321.724 169.443C323.14 168.527 324.537 167.536 325.876 166.498L326.394 167.167C325.036 168.22 323.62 169.224 322.183 170.154V170.154ZM250.031 165.573C248.727 164.472 247.449 163.297 246.231 162.082L246.83 161.483C248.03 162.682 249.291 163.841 250.577 164.927L250.031 165.573ZM330.337 163.834L329.764 163.211C330.378 162.647 330.992 162.058 331.589 161.46C332.192 160.858 332.788 160.236 333.362 159.611L333.985 160.184C333.403 160.817 332.798 161.448 332.188 162.058C331.582 162.664 330.959 163.261 330.337 163.834V163.834ZM242.736 158.286C241.626 156.974 240.562 155.602 239.572 154.207L240.262 153.717C241.238 155.093 242.288 156.446 243.382 157.74L242.736 158.286ZM337.314 156.241L336.645 155.723C337.682 154.385 338.671 152.989 339.586 151.574L340.296 152.034C339.368 153.469 338.365 154.885 337.314 156.241V156.241ZM236.765 149.873C235.897 148.396 235.081 146.863 234.34 145.316L235.104 144.951C235.833 146.476 236.638 147.988 237.495 149.444L236.765 149.873ZM342.909 147.586L342.162 147.189C342.954 145.698 343.692 144.154 344.355 142.599L345.133 142.931C344.461 144.508 343.713 146.074 342.909 147.586ZM232.314 140.569C231.709 138.966 231.165 137.316 230.699 135.666L231.513 135.436C231.973 137.063 232.509 138.69 233.105 140.27L232.314 140.569ZM346.952 138.103L346.148 137.838C346.675 136.234 347.14 134.587 347.53 132.942L348.353 133.137C347.958 134.805 347.486 136.476 346.952 138.103V138.103ZM229.507 130.645C229.182 128.965 228.926 127.247 228.744 125.541L229.585 125.451C229.764 127.134 230.018 128.828 230.337 130.485L229.507 130.645ZM349.328 128.07L348.491 127.945C348.74 126.273 348.92 124.571 349.027 122.885L349.872 122.939C349.763 124.648 349.58 126.374 349.328 128.07ZM228.415 120.391C228.406 119.95 228.401 119.51 228.401 119.069C228.401 117.796 228.441 116.505 228.522 115.232L229.366 115.285C229.287 116.541 229.247 117.814 229.247 119.068C229.247 119.503 229.252 119.938 229.261 120.373L228.415 120.391ZM349.135 117.797C349.099 116.104 348.991 114.395 348.813 112.718L349.654 112.629C349.834 114.33 349.944 116.063 349.981 117.779L349.135 117.797ZM229.899 110.224L229.062 110.1C229.314 108.403 229.641 106.698 230.035 105.033L230.858 105.227C230.47 106.869 230.147 108.551 229.899 110.224ZM348.064 107.685C347.744 106.024 347.35 104.358 346.891 102.732L347.705 102.503C348.171 104.151 348.57 105.841 348.895 107.525L348.064 107.685ZM232.237 100.33L231.433 100.066C231.967 98.4362 232.579 96.8113 233.249 95.2367L234.027 95.568C233.367 97.1207 232.764 98.7229 232.237 100.33ZM345.302 97.8973C344.706 96.3167 344.035 94.7416 343.306 93.2157L344.069 92.8509C344.809 94.3985 345.49 95.9961 346.093 97.5995L345.302 97.8973ZM236.218 90.977L235.47 90.5804C236.273 89.0679 237.151 87.5712 238.081 86.1314L238.792 86.5903C237.875 88.0098 237.009 89.4858 236.218 90.977ZM340.917 88.7214C340.06 87.2634 339.13 85.8253 338.153 84.447L338.843 83.9575C339.834 85.3556 340.777 86.814 341.646 88.2926L340.917 88.7214ZM241.73 82.4393L241.061 81.9217C242.108 80.5682 243.228 79.2412 244.388 77.9776L245.011 78.5497C243.867 79.796 242.763 81.1046 241.73 82.4393V82.4393ZM335.035 80.4224C333.945 79.1334 332.786 77.8733 331.589 76.677L331.544 76.6322L332.138 76.0299L332.188 76.0789C333.4 77.2917 334.576 78.5693 335.681 79.8763L335.035 80.4224ZM248.607 74.9483L248.034 74.3262C249.297 73.1625 250.623 72.0404 251.975 70.9905L252.494 71.6589C251.16 72.6941 249.853 73.8009 248.607 74.9483ZM327.794 73.19C326.501 72.0997 325.147 71.0531 323.771 70.0793L324.259 69.3886C325.655 70.3763 327.028 71.4375 328.339 72.5431L327.794 73.19ZM256.644 68.7114L256.184 68.0013C257.623 67.0692 259.12 66.1881 260.633 65.382L261.03 66.1288C259.538 66.9234 258.063 67.7923 256.644 68.7114V68.7114ZM319.498 67.3214C318.043 66.4677 316.531 65.6659 315.004 64.9383L315.368 64.1745C316.916 64.9127 318.45 65.7261 319.926 66.5919L319.498 67.3214ZM265.621 63.9308L265.289 63.153C266.864 62.4799 268.489 61.8664 270.117 61.3296L270.382 62.1331C268.776 62.6622 267.174 63.2672 265.621 63.9308V63.9308ZM310.322 62.9473C308.743 62.3537 307.116 61.8204 305.488 61.3623L305.717 60.5481C307.369 61.0124 309.018 61.5533 310.62 62.1554L310.322 62.9473ZM275.279 60.7472L275.083 59.9241C276.752 59.5276 278.457 59.1981 280.151 58.9449L280.275 59.7814C278.605 60.0313 276.924 60.3562 275.279 60.7472V60.7472ZM300.536 60.1937C298.876 59.8756 297.183 59.6249 295.503 59.4483L295.591 58.6068C297.295 58.7861 299.012 59.0404 300.696 59.363L300.536 60.1937ZM285.336 59.2415L285.282 58.3972C286.993 58.2873 288.728 58.2487 290.441 58.2844L290.424 59.1304C288.734 59.0955 287.023 59.1331 285.336 59.2415L285.336 59.2415Z" fill="#D0CDE1"/>
<path d="M40.6851 246.895H38.1471V247.741H40.6851V246.895Z" fill="#D0CDE1"/>
<path d="M446.896 247.741H441.818V246.895H446.896V247.741ZM436.741 247.741H431.663V246.895H436.741V247.741ZM426.585 247.741H421.508V246.895H426.585V247.741ZM416.43 247.741H411.352V246.895H416.43V247.741ZM406.275 247.741H401.197V246.895H406.275V247.741ZM396.12 247.741H391.042V246.895H396.12V247.741ZM385.964 247.741H380.887V246.895H385.964V247.741ZM375.809 247.741H370.731V246.895H375.809V247.741ZM365.654 247.741H360.576V246.895H365.654V247.741ZM355.499 247.741H350.421V246.895H355.499V247.741ZM345.343 247.741H340.265V246.895H345.343V247.741ZM335.188 247.741H330.11V246.895H335.188V247.741ZM325.033 247.741H319.955V246.895H325.033V247.741ZM314.878 247.741H309.8V246.895H314.878V247.741ZM304.722 247.741H299.644V246.895H304.722V247.741ZM294.567 247.741H289.489V246.895H294.567V247.741ZM284.412 247.741H279.334V246.895H284.412V247.741ZM274.257 247.741H269.179V246.895H274.257V247.741ZM264.101 247.741H259.023V246.895H264.101V247.741ZM253.946 247.741H248.868V246.895H253.946V247.741ZM243.791 247.741H238.713V246.895H243.791V247.741ZM233.635 247.741H228.557V246.895H233.635L233.635 247.741ZM223.48 247.741H218.402V246.895H223.48V247.741ZM213.325 247.741H208.247V246.895H213.325V247.741ZM203.169 247.741H198.092V246.895H203.169V247.741ZM193.014 247.741H187.936V246.895H193.014V247.741ZM182.859 247.741H177.781V246.895H182.859L182.859 247.741ZM172.704 247.741H167.626V246.895H172.704L172.704 247.741ZM162.548 247.741H157.471V246.895H162.548L162.548 247.741ZM152.393 247.741H147.315V246.895H152.393L152.393 247.741ZM142.238 247.741H137.16V246.895H142.238L142.238 247.741ZM132.083 247.741H127.005V246.895H132.082L132.083 247.741ZM121.927 247.741H116.85V246.895H121.927V247.741ZM111.772 247.741H106.694V246.895H111.772L111.772 247.741ZM101.617 247.741H96.5391V246.895H101.617V247.741ZM91.4615 247.741H86.3837V246.895H91.4615L91.4615 247.741ZM81.3061 247.741H76.2285V246.895H81.3061L81.3061 247.741ZM71.151 247.741H66.0732V246.895H71.151V247.741ZM60.9956 247.741H55.918V246.895H60.9956L60.9956 247.741ZM50.8402 247.741H45.7626V246.895H50.8402L50.8402 247.741Z" fill="#D0CDE1"/>
<path d="M454.512 246.895H451.974V247.741H454.512V246.895Z" fill="#D0CDE1"/>
</svg>
