<svg width="450" height="265" viewBox="0 0 450 265" fill="none" xmlns="http://www.w3.org/2000/svg">
<path d="M380.298 199.094H87.641C85.6433 199.092 83.728 198.294 82.3153 196.877C80.9027 195.46 80.1081 193.538 80.1058 191.534V10.4891C80.1074 9.02079 80.6896 7.61305 81.7245 6.57475C82.7594 5.53645 84.1625 4.95238 85.6261 4.95068H382.218C383.707 4.95238 385.134 5.54653 386.187 6.60279C387.24 7.65904 387.832 9.09114 387.833 10.5849V191.534C387.831 193.538 387.037 195.46 385.624 196.877C384.211 198.294 382.296 199.092 380.298 199.094V199.094Z" fill="#F2F2F2"/>
<path d="M370.836 189.549H98.0871C94.0889 189.549 90.8361 186.493 90.8361 182.737V25.0809C90.8361 22.2952 93.2465 20.0288 96.2092 20.0288H372.625C375.637 20.0288 378.087 22.3326 378.087 25.1641V182.737C378.087 186.493 374.834 189.549 370.836 189.549Z" fill="white"/>
<path d="M387.729 11.4313H80V7.58251C80.0029 5.57159 80.8007 3.64393 82.2185 2.22242C83.6363 0.800923 85.5582 0.00166743 87.5626 0H380.166C382.17 0.00165047 384.092 0.800899 385.51 2.2224C386.928 3.64391 387.726 5.57158 387.729 7.58251V11.4313Z" fill="#3F3D56"/>
<path d="M93.7439 7.68966C94.8243 7.68966 95.7001 6.81101 95.7001 5.72715C95.7001 4.64329 94.8243 3.76465 93.7439 3.76465C92.6636 3.76465 91.7878 4.64329 91.7878 5.72715C91.7878 6.81101 92.6636 7.68966 93.7439 7.68966Z" fill="white"/>
<path d="M101.169 7.68966C102.249 7.68966 103.125 6.81101 103.125 5.72715C103.125 4.64329 102.249 3.76465 101.169 3.76465C100.089 3.76465 99.2128 4.64329 99.2128 5.72715C99.2128 6.81101 100.089 7.68966 101.169 7.68966Z" fill="white"/>
<path d="M108.594 7.68966C109.674 7.68966 110.55 6.81101 110.55 5.72715C110.55 4.64329 109.674 3.76465 108.594 3.76465C107.514 3.76465 106.638 4.64329 106.638 5.72715C106.638 6.81101 107.514 7.68966 108.594 7.68966Z" fill="white"/>
<path d="M227.991 54.5006H174.647C173.852 54.5006 173.089 54.1837 172.527 53.6195C171.964 53.0553 171.648 52.2901 171.648 51.4923C171.648 50.6944 171.964 49.9292 172.527 49.365C173.089 48.8008 173.852 48.4839 174.647 48.4839H227.991C228.786 48.4839 229.549 48.8008 230.111 49.365C230.674 49.9292 230.989 50.6944 230.989 51.4923C230.989 52.2901 230.674 53.0553 230.111 53.6195C229.549 54.1837 228.786 54.5006 227.991 54.5006V54.5006Z" fill="#CCCCCC"/>
<path d="M294.276 54.5006H240.932C240.137 54.5006 239.374 54.1837 238.812 53.6195C238.25 53.0553 237.934 52.2901 237.934 51.4923C237.934 50.6944 238.25 49.9292 238.812 49.365C239.374 48.8008 240.137 48.4839 240.932 48.4839H294.276C295.071 48.4839 295.834 48.8008 296.396 49.365C296.959 49.9292 297.275 50.6944 297.275 51.4923C297.275 52.2901 296.959 53.0553 296.396 53.6195C295.834 54.1837 295.071 54.5006 294.276 54.5006V54.5006Z" fill="#CCCCCC"/>
<path d="M294.276 65.9008H201.477C200.681 65.9008 199.919 65.5838 199.356 65.0196C198.794 64.4554 198.478 63.6903 198.478 62.8924C198.478 62.0945 198.794 61.3293 199.356 60.7652C199.919 60.201 200.681 59.884 201.477 59.884H294.276C295.071 59.884 295.834 60.201 296.396 60.7652C296.959 61.3293 297.275 62.0945 297.275 62.8924C297.275 63.6903 296.959 64.4554 296.396 65.0196C295.834 65.5838 295.071 65.9008 294.276 65.9008Z" fill="#CCCCCC"/>
<path d="M227.991 42.942H174.647C173.852 42.941 173.091 42.6237 172.529 42.0596C171.968 41.4955 171.652 40.7309 171.652 39.9337C171.652 39.1364 171.968 38.3718 172.529 37.8077C173.091 37.2437 173.852 36.9263 174.647 36.9253H227.991C228.385 36.9248 228.775 37.0023 229.14 37.1532C229.504 37.3042 229.835 37.5257 230.114 37.8051C230.392 38.0845 230.614 38.4163 230.765 38.7815C230.916 39.1468 230.993 39.5383 230.993 39.9337C230.993 40.329 230.916 40.7205 230.765 41.0858C230.614 41.451 230.392 41.7828 230.114 42.0622C229.835 42.3416 229.504 42.5631 229.14 42.7141C228.775 42.8651 228.385 42.9425 227.991 42.942V42.942Z" fill="#CCCCCC"/>
<path d="M257.346 43.1005H242.195C241.399 43.1005 240.637 42.7835 240.074 42.2193C239.512 41.6552 239.196 40.89 239.196 40.0921C239.196 39.2942 239.512 38.529 240.074 37.9649C240.637 37.4007 241.399 37.0837 242.195 37.0837H257.346C258.141 37.0837 258.904 37.4007 259.466 37.9649C260.028 38.529 260.344 39.2942 260.344 40.0921C260.344 40.89 260.028 41.6552 259.466 42.2193C258.904 42.7835 258.141 43.1005 257.346 43.1005Z" fill="#CCCCCC"/>
<path d="M189.798 65.9008H174.647C173.852 65.8998 173.091 65.5824 172.529 65.0183C171.968 64.4543 171.652 63.6896 171.652 62.8924C171.652 62.0952 171.968 61.3305 172.529 60.7665C173.091 60.2024 173.852 59.885 174.647 59.884H189.798C190.192 59.8835 190.582 59.961 190.947 60.112C191.311 60.2629 191.642 60.4844 191.921 60.7638C192.2 61.0432 192.421 61.3751 192.572 61.7403C192.723 62.1055 192.8 62.497 192.8 62.8924C192.8 63.2878 192.723 63.6793 192.572 64.0445C192.421 64.4098 192.2 64.7416 191.921 65.021C191.642 65.3004 191.311 65.5219 190.947 65.6728C190.582 65.8238 190.192 65.9013 189.798 65.9008Z" fill="#CCCCCC"/>
<path d="M227.991 161.253H174.647C173.852 161.253 173.089 160.936 172.527 160.372C171.964 159.808 171.648 159.042 171.648 158.244C171.648 157.447 171.964 156.681 172.527 156.117C173.089 155.553 173.852 155.236 174.647 155.236H227.991C228.385 155.236 228.775 155.314 229.138 155.465C229.502 155.616 229.833 155.838 230.111 156.117C230.39 156.397 230.611 156.728 230.761 157.093C230.912 157.458 230.989 157.849 230.989 158.244C230.989 158.64 230.912 159.031 230.761 159.396C230.611 159.761 230.39 160.092 230.111 160.372C229.833 160.651 229.502 160.873 229.138 161.024C228.775 161.175 228.385 161.253 227.991 161.253V161.253Z" fill="#CCCCCC"/>
<path d="M294.276 161.253H240.932C240.137 161.253 239.374 160.936 238.812 160.372C238.25 159.808 237.934 159.042 237.934 158.244C237.934 157.447 238.25 156.681 238.812 156.117C239.374 155.553 240.137 155.236 240.932 155.236H294.276C294.67 155.236 295.06 155.314 295.424 155.465C295.787 155.616 296.118 155.838 296.396 156.117C296.675 156.397 296.896 156.728 297.046 157.093C297.197 157.458 297.275 157.849 297.275 158.244C297.275 158.64 297.197 159.031 297.046 159.396C296.896 159.761 296.675 160.092 296.396 160.372C296.118 160.651 295.787 160.873 295.424 161.024C295.06 161.175 294.67 161.253 294.276 161.253V161.253Z" fill="#CCCCCC"/>
<path d="M294.276 172.653H201.477C200.681 172.653 199.919 172.336 199.356 171.772C198.794 171.208 198.478 170.442 198.478 169.645C198.478 168.847 198.794 168.082 199.356 167.517C199.919 166.953 200.681 166.636 201.477 166.636H294.276C294.67 166.636 295.06 166.713 295.425 166.864C295.789 167.015 296.12 167.237 296.399 167.516C296.678 167.795 296.899 168.127 297.05 168.492C297.201 168.858 297.278 169.249 297.278 169.645C297.278 170.04 297.201 170.431 297.05 170.797C296.899 171.162 296.678 171.494 296.399 171.773C296.12 172.053 295.789 172.274 295.425 172.425C295.06 172.576 294.67 172.653 294.276 172.653Z" fill="#CCCCCC"/>
<path d="M227.991 149.694H174.647C173.852 149.694 173.089 149.377 172.527 148.813C171.964 148.249 171.648 147.484 171.648 146.686C171.648 145.888 171.964 145.123 172.527 144.559C173.089 143.994 173.852 143.677 174.647 143.677H227.991C228.786 143.677 229.549 143.994 230.111 144.559C230.674 145.123 230.989 145.888 230.989 146.686C230.989 147.484 230.674 148.249 230.111 148.813C229.549 149.377 228.786 149.694 227.991 149.694Z" fill="#CCCCCC"/>
<path d="M257.346 149.853H242.195C241.399 149.853 240.637 149.536 240.074 148.972C239.512 148.407 239.196 147.642 239.196 146.844C239.196 146.046 239.512 145.281 240.074 144.717C240.637 144.153 241.399 143.836 242.195 143.836H257.346C258.141 143.836 258.904 144.153 259.466 144.717C260.028 145.281 260.344 146.046 260.344 146.844C260.344 147.642 260.028 148.407 259.466 148.972C258.904 149.536 258.141 149.853 257.346 149.853V149.853Z" fill="#CCCCCC"/>
<path d="M189.798 172.653H174.647C173.852 172.653 173.089 172.336 172.527 171.772C171.964 171.208 171.648 170.442 171.648 169.645C171.648 168.847 171.964 168.082 172.527 167.517C173.089 166.953 173.852 166.636 174.647 166.636H189.798C190.192 166.636 190.582 166.713 190.947 166.864C191.311 167.015 191.642 167.237 191.921 167.516C192.2 167.795 192.421 168.127 192.572 168.492C192.723 168.858 192.8 169.249 192.8 169.645C192.8 170.04 192.723 170.431 192.572 170.797C192.421 171.162 192.2 171.494 191.921 171.773C191.642 172.053 191.311 172.274 190.947 172.425C190.582 172.576 190.192 172.653 189.798 172.653Z" fill="#CCCCCC"/>
<path d="M214.059 128.956C212.927 128.958 211.84 128.512 211.034 127.714L190.982 107.848C190.588 107.458 190.276 106.994 190.063 106.482C189.849 105.969 189.739 105.42 189.739 104.865C189.739 104.31 189.849 103.76 190.063 103.248C190.276 102.736 190.588 102.271 190.982 101.881L210.953 82.0959C211.785 81.2756 212.906 80.8176 214.073 80.8213C215.239 80.825 216.357 81.2901 217.184 82.1156C218.012 82.9478 218.476 84.0754 218.476 85.2509C218.476 86.4265 218.012 87.5541 217.184 88.3863L202.344 103.275C201.881 103.74 201.622 104.37 201.622 105.027C201.622 105.684 201.881 106.313 202.344 106.778L217.103 121.586C217.706 122.19 218.117 122.959 218.283 123.797C218.45 124.635 218.365 125.503 218.038 126.293C217.712 127.082 217.16 127.756 216.452 128.23C215.743 128.704 214.911 128.957 214.059 128.956V128.956Z" fill="#0371B4"/>
<path d="M246.011 128.955C245.159 128.957 244.327 128.704 243.618 128.23C242.91 127.756 242.358 127.082 242.031 126.292C241.705 125.503 241.62 124.635 241.787 123.797C241.953 122.959 242.364 122.19 242.966 121.586L257.726 106.778C258.189 106.313 258.448 105.683 258.448 105.027C258.448 104.37 258.189 103.74 257.726 103.275L242.886 88.3861C242.476 87.9743 242.15 87.4855 241.928 86.9476C241.706 86.4096 241.591 85.833 241.591 85.2507C241.591 84.6684 241.706 84.0918 241.928 83.5539C242.15 83.0159 242.476 82.5271 242.886 82.1154V82.1154C243.713 81.2898 244.831 80.8248 245.997 80.8211C247.164 80.8174 248.285 81.2754 249.117 82.0957L269.088 101.881C269.482 102.271 269.794 102.736 270.007 103.248C270.221 103.76 270.331 104.309 270.331 104.865C270.331 105.42 270.221 105.969 270.007 106.481C269.794 106.993 269.482 107.458 269.088 107.848L249.036 127.714C248.23 128.511 247.143 128.958 246.011 128.955Z" fill="#0371B4"/>
<path d="M225 265C349.264 265 450 260.299 450 254.5C450 248.701 349.264 244 225 244C100.736 244 0 248.701 0 254.5C0 260.299 100.736 265 225 265Z" fill="#3F3D56"/>
<path opacity="0.1" d="M225 265C349.264 265 450 260.299 450 254.5C450 248.701 349.264 244 225 244C100.736 244 0 248.701 0 254.5C0 260.299 100.736 265 225 265Z" fill="black"/>
<path d="M225 259C343.741 259 440 254.299 440 248.5C440 242.701 343.741 238 225 238C106.259 238 10 242.701 10 248.5C10 254.299 106.259 259 225 259Z" fill="#3F3D56"/>
<path opacity="0.2" d="M3.75749 248.217C9.47054 248.263 17.0286 247.301 18.5539 246.385C19.7093 245.679 20.1705 243.136 20.3258 241.963H20.4948C20.4948 241.963 20.1751 246.055 18.668 247.003C17.161 247.952 9.58471 248.872 3.87622 248.836C2.22761 248.836 1.65676 248.236 1.68873 247.361C1.90337 247.878 2.53359 248.217 3.75749 248.217Z" fill="black"/>
<path d="M155.921 141.679C154.575 141.215 153.218 140.785 151.85 140.389C152.076 139.463 152.285 138.532 152.479 137.596C155.561 122.55 153.546 110.43 146.664 106.44C140.065 102.613 129.273 106.604 118.372 116.14C117.297 117.084 116.247 118.053 115.223 119.046C114.535 118.384 113.836 117.736 113.126 117.1C101.705 106.901 90.2643 102.605 83.3805 106.606C76.7877 110.444 74.8316 121.838 77.61 136.097C77.8814 137.51 78.1928 138.914 78.5443 140.309C76.9261 140.772 75.3609 141.265 73.8628 141.791C60.4717 146.476 51.9188 153.844 51.9188 161.477C51.9188 169.358 61.1006 177.265 75.0494 182.058C76.1811 182.444 77.321 182.803 78.469 183.135C78.0971 184.636 77.7661 186.149 77.4757 187.674C74.8296 201.686 76.8976 212.812 83.472 216.625C90.2643 220.567 101.663 216.515 112.76 206.76C113.637 205.988 114.516 205.17 115.406 204.314C116.516 205.391 117.655 206.436 118.823 207.45C129.575 216.752 140.195 220.51 146.762 216.685C153.546 212.737 155.75 200.784 152.888 186.244C152.671 185.133 152.418 184 152.129 182.844C152.931 182.607 153.715 182.361 154.482 182.105C168.983 177.275 178.419 169.465 178.419 161.477C178.419 153.816 169.589 146.409 155.927 141.679H155.921Z" fill="#53C1DE"/>
<path d="M152.732 176.928C152.041 177.159 151.333 177.38 150.61 177.597C148.844 172.093 146.707 166.717 144.212 161.506C146.611 156.365 148.666 151.068 150.362 145.651C151.653 146.027 152.909 146.423 154.116 146.842C165.807 150.887 172.939 156.869 172.939 161.48C172.939 166.385 165.236 172.763 152.732 176.928ZM147.544 187.266C148.809 193.685 148.987 199.489 148.154 204.025C147.402 208.102 145.889 210.82 144.019 211.909C140.037 214.225 131.523 211.215 122.341 203.27C121.288 202.359 120.229 201.388 119.163 200.358C122.992 196.097 126.529 191.581 129.753 186.841C135.51 186.35 141.227 185.463 146.863 184.184C147.121 185.23 147.349 186.252 147.548 187.249L147.544 187.266ZM95.0719 211.513C91.181 212.894 88.083 212.933 86.2107 211.848C82.2263 209.537 80.5695 200.607 82.83 188.651C83.1011 187.239 83.4081 185.833 83.7509 184.435C89.3639 185.647 95.0519 186.475 100.776 186.914C104.094 191.638 107.716 196.137 111.621 200.383C110.837 201.147 110.034 201.89 109.215 202.612C104.313 206.921 99.3999 209.97 95.0719 211.513V211.513ZM76.8494 176.898C70.6878 174.78 65.6015 172.03 62.1131 169.029C58.9805 166.332 57.3989 163.652 57.3989 161.48C57.3989 156.855 64.2578 150.954 75.6947 146.947C77.1313 146.444 78.5807 145.985 80.043 145.571C81.7418 151.048 83.7988 156.406 86.2005 161.61C83.7689 166.889 81.6867 172.324 79.9678 177.879C78.9188 177.578 77.8793 177.251 76.8494 176.898ZM82.9581 135.095C80.5837 122.896 82.1592 113.693 86.1273 111.387C90.3537 108.935 99.6987 112.434 109.55 121.228C110.18 121.79 110.812 122.379 111.445 122.986C107.568 127.205 103.973 131.678 100.685 136.376C95.0145 136.887 89.3832 137.767 83.8261 139.011C83.5022 137.714 83.2129 136.409 82.9581 135.097V135.095ZM137.461 148.622C136.227 146.478 134.947 144.36 133.621 142.27C137.652 142.783 141.513 143.462 145.139 144.296C143.975 148.007 142.626 151.657 141.096 155.232C139.929 153.004 138.717 150.801 137.461 148.622ZM115.23 126.863C117.857 129.742 120.338 132.753 122.664 135.884C117.689 135.648 112.712 135.648 107.733 135.884C110.186 132.63 112.701 129.605 115.23 126.865V126.863ZM92.8683 148.659C91.6283 150.821 90.439 153.011 89.3006 155.228C87.7292 151.482 86.3855 147.797 85.2878 144.239C88.892 143.421 92.7362 142.765 96.7409 142.26C95.3965 144.364 94.1043 146.497 92.8642 148.659H92.8683ZM96.8548 181.083C92.9459 180.657 89.0614 180.029 85.2166 179.201C86.3327 175.582 87.7069 171.817 89.3128 167.989C90.4553 170.209 91.6486 172.399 92.8927 174.562C94.1585 176.768 95.4778 178.942 96.8507 181.083H96.8548ZM115.382 196.479C112.821 193.712 110.27 190.646 107.781 187.333C110.2 187.43 112.664 187.478 115.173 187.478C117.748 187.478 120.29 187.421 122.798 187.307C120.483 190.49 118.006 193.551 115.378 196.479H115.382ZM141.137 167.795C142.746 171.442 144.165 175.171 145.389 178.966C141.497 179.847 137.561 180.521 133.599 180.987C134.934 178.858 136.227 176.703 137.477 174.523C138.749 172.307 139.968 170.065 141.137 167.795ZM132.802 171.813C130.888 175.154 128.868 178.431 126.742 181.643C122.993 181.913 119.121 182.052 115.173 182.052C111.225 182.052 107.418 181.93 103.734 181.688C101.553 178.486 99.4941 175.205 97.5561 171.844C95.6181 168.482 93.8217 165.071 92.167 161.608C93.8299 158.13 95.6208 154.717 97.5398 151.369C99.4561 148.023 101.498 144.753 103.665 141.559C107.424 141.273 111.274 141.124 115.169 141.124C119.064 141.124 122.938 141.275 126.693 141.561C128.836 144.745 130.869 148.002 132.792 151.332C134.715 154.662 136.53 158.06 138.238 161.525C136.55 165.015 134.741 168.442 132.808 171.805L132.802 171.813ZM143.936 111.224C148.166 113.676 149.811 123.568 147.154 136.54C146.979 137.383 146.789 138.224 146.585 139.064C141.019 137.795 135.377 136.899 129.694 136.38C126.437 131.678 122.869 127.202 119.015 122.981C119.964 122.063 120.932 121.17 121.92 120.302C131.247 112.141 139.964 108.92 143.936 111.224Z" fill="white"/>
<path d="M115.169 149.9C117.382 149.9 119.545 150.572 121.385 151.831C123.225 153.089 124.659 154.878 125.506 156.971C126.353 159.064 126.574 161.367 126.142 163.589C125.711 165.811 124.645 167.852 123.08 169.454C121.516 171.055 119.522 172.146 117.352 172.588C115.181 173.03 112.932 172.803 110.887 171.936C108.843 171.07 107.095 169.601 105.866 167.718C104.636 165.834 103.98 163.62 103.98 161.354C103.98 159.85 104.269 158.36 104.831 156.971C105.393 155.581 106.218 154.318 107.257 153.254C108.296 152.191 109.529 151.347 110.887 150.771C112.244 150.196 113.699 149.9 115.169 149.9" fill="#53C1DE"/>
</svg>
