<svg width="450" height="297" viewBox="0 0 450 297" fill="none" xmlns="http://www.w3.org/2000/svg">
<path opacity="0.1" d="M225 297C349.264 297 450 292.299 450 286.5C450 280.701 349.264 276 225 276C100.736 276 0 280.701 0 286.5C0 292.299 100.736 297 225 297Z" fill="black"/>
<path d="M225 291C343.741 291 440 286.299 440 280.5C440 274.701 343.741 270 225 270C106.259 270 10 274.701 10 280.5C10 286.299 106.259 291 225 291Z" fill="#3F3D56"/>
<g filter="url(#filter0_d)">
<rect x="78" y="4" width="347.238" height="180.634" rx="8" fill="white"/>
<rect x="78.5" y="4.5" width="346.238" height="179.634" rx="7.5" stroke="#8D8888"/>
</g>
<path d="M195.092 127.43L194.607 128.036L236.313 161.609L236.798 161.004L195.092 127.43Z" fill="#E6E6E6"/>
<path d="M236.313 127.623L194.603 161.595L195.092 162.198L236.802 128.226L236.313 127.623Z" fill="#E6E6E6"/>
<path d="M299.885 39.8543L299.393 40.4551L394.18 118.309L394.672 117.708L299.885 39.8543Z" fill="#E6E6E6"/>
<path d="M394.167 39.84L299.405 118.112L299.898 118.711L394.66 40.4395L394.167 39.84Z" fill="#E6E6E6"/>
<path d="M425.594 18.1323H78V18.9092H425.594V18.1323Z" fill="#E6E6E6"/>
<path d="M288.254 74.894H196.027C195.308 74.8932 194.618 74.6065 194.11 74.0968C193.601 73.587 193.315 72.8959 193.315 72.1751V41.4904C193.315 40.7695 193.601 40.0784 194.11 39.5687C194.618 39.059 195.308 38.7723 196.027 38.7715H288.254C288.973 38.7723 289.663 39.059 290.171 39.5687C290.68 40.0784 290.966 40.7695 290.966 41.4904V72.1751C290.966 72.8959 290.68 73.587 290.171 74.0968C289.663 74.6065 288.973 74.8932 288.254 74.894V74.894ZM196.027 39.5483C195.513 39.5489 195.021 39.7537 194.658 40.1178C194.295 40.4819 194.09 40.9755 194.09 41.4904V72.1751C194.09 72.69 194.295 73.1836 194.658 73.5477C195.021 73.9118 195.513 74.1166 196.027 74.1172H288.254C288.768 74.1166 289.26 73.9118 289.623 73.5477C289.987 73.1836 290.191 72.69 290.191 72.1751V41.4904C290.191 40.9755 289.987 40.4819 289.623 40.1178C289.26 39.7537 288.768 39.5489 288.254 39.5483H196.027Z" fill="#0371B4"/>
<path d="M393.656 163.064H301.429C300.71 163.063 300.02 162.776 299.512 162.267C299.003 161.757 298.717 161.066 298.717 160.345V129.66C298.717 128.939 299.003 128.248 299.512 127.739C300.02 127.229 300.71 126.942 301.429 126.941H393.656C394.375 126.942 395.064 127.229 395.573 127.739C396.082 128.248 396.368 128.939 396.368 129.66V160.345C396.368 161.066 396.082 161.757 395.573 162.267C395.064 162.776 394.375 163.063 393.656 163.064Z" fill="#5CB4E9"/>
<path d="M235.165 118.785H196.027C195.308 118.784 194.619 118.498 194.11 117.988C193.601 117.478 193.315 116.787 193.315 116.066V85.3815C193.315 84.6606 193.601 83.9696 194.11 83.4598C194.618 82.9501 195.308 82.6634 196.027 82.6626H235.165C235.885 82.6634 236.574 82.9501 237.083 83.4598C237.591 83.9696 237.877 84.6606 237.878 85.3815V116.066C237.877 116.787 237.591 117.478 237.083 117.988C236.574 118.498 235.885 118.784 235.165 118.785V118.785ZM196.027 83.4394C195.513 83.44 195.021 83.6448 194.658 84.0089C194.295 84.373 194.09 84.8666 194.09 85.3815V116.066C194.09 116.581 194.295 117.075 194.658 117.439C195.021 117.803 195.513 118.008 196.027 118.008H235.165C235.679 118.008 236.172 117.803 236.535 117.439C236.898 117.075 237.102 116.581 237.103 116.066V85.3815C237.102 84.8666 236.898 84.373 236.535 84.0089C236.172 83.6448 235.679 83.44 235.165 83.4394H196.027Z" fill="#0371B4"/>
<path d="M288.254 118.785H249.116C248.396 118.784 247.707 118.498 247.198 117.988C246.69 117.478 246.404 116.787 246.403 116.066V85.3815C246.404 84.6606 246.69 83.9696 247.198 83.4598C247.707 82.9501 248.396 82.6634 249.116 82.6626H288.254C288.973 82.6634 289.663 82.9501 290.171 83.4598C290.68 83.9696 290.966 84.6606 290.966 85.3815V116.066C290.966 116.787 290.68 117.478 290.171 117.988C289.663 118.498 288.973 118.784 288.254 118.785V118.785Z" fill="#5CB4E9"/>
<path d="M235.165 162.676H196.027C195.308 162.675 194.619 162.388 194.11 161.878C193.601 161.369 193.315 160.678 193.315 159.957V129.272C193.315 128.551 193.601 127.86 194.11 127.35C194.619 126.841 195.308 126.554 196.027 126.553H235.165C235.885 126.554 236.574 126.841 237.083 127.35C237.591 127.86 237.877 128.551 237.878 129.272V159.957C237.877 160.678 237.591 161.369 237.083 161.878C236.574 162.388 235.885 162.675 235.165 162.676V162.676ZM196.027 127.33C195.513 127.331 195.021 127.535 194.658 127.9C194.295 128.264 194.09 128.757 194.09 129.272V159.957C194.09 160.472 194.295 160.965 194.658 161.329C195.021 161.693 195.513 161.898 196.027 161.899H235.165C235.679 161.898 236.172 161.693 236.535 161.329C236.898 160.965 237.102 160.472 237.103 159.957V129.272C237.102 128.757 236.898 128.264 236.535 127.9C236.172 127.535 235.679 127.331 235.165 127.33H196.027Z" fill="#3F3D56"/>
<path d="M288.254 162.676H249.116C248.396 162.675 247.707 162.388 247.198 161.878C246.69 161.369 246.404 160.678 246.403 159.957V129.272C246.404 128.551 246.69 127.86 247.198 127.35C247.707 126.841 248.396 126.554 249.116 126.553H288.254C288.973 126.554 289.663 126.841 290.171 127.35C290.68 127.86 290.966 128.551 290.966 129.272V159.957C290.966 160.678 290.68 161.369 290.171 161.878C289.663 162.388 288.973 162.675 288.254 162.676V162.676ZM249.116 127.33C248.602 127.331 248.109 127.535 247.746 127.9C247.383 128.264 247.179 128.757 247.178 129.272V159.957C247.179 160.472 247.383 160.965 247.746 161.329C248.109 161.693 248.602 161.898 249.116 161.899H288.254C288.768 161.898 289.26 161.693 289.623 161.329C289.987 160.965 290.191 160.472 290.191 159.957V129.272C290.191 128.757 289.987 128.264 289.623 127.9C289.26 127.535 288.768 127.331 288.254 127.33H249.116Z" fill="#0371B4"/>
<path d="M393.268 119.173H301.042C300.322 119.172 299.633 118.886 299.124 118.376C298.616 117.866 298.33 117.175 298.329 116.454V41.4904C298.33 40.7695 298.616 40.0784 299.124 39.5687C299.633 39.059 300.322 38.7723 301.042 38.7715H393.268C393.988 38.7723 394.677 39.059 395.185 39.5688C395.694 40.0785 395.98 40.7695 395.981 41.4904V116.454C395.98 117.175 395.694 117.866 395.185 118.376C394.677 118.886 393.987 119.172 393.268 119.173V119.173ZM301.042 39.5483C300.528 39.5489 300.035 39.7537 299.672 40.1178C299.309 40.4819 299.105 40.9755 299.104 41.4904V116.454C299.105 116.969 299.309 117.463 299.672 117.827C300.035 118.191 300.528 118.396 301.042 118.396H393.268C393.782 118.396 394.274 118.191 394.638 117.827C395.001 117.463 395.205 116.969 395.206 116.454V41.4904C395.205 40.9755 395.001 40.4819 394.638 40.1178C394.274 39.7537 393.782 39.5489 393.268 39.5483H301.042Z" fill="#3F3D56"/>
<path d="M408.381 132.768H316.154C315.435 132.767 314.746 132.48 314.237 131.971C313.729 131.461 313.443 130.77 313.442 130.049V55.0851C313.443 54.3643 313.729 53.6732 314.237 53.1635C314.746 52.6538 315.435 52.3671 316.154 52.3662H408.381C409.1 52.3671 409.79 52.6538 410.298 53.1635C410.807 53.6732 411.093 54.3643 411.094 55.0851V130.049C411.093 130.77 410.807 131.461 410.298 131.971C409.79 132.48 409.1 132.767 408.381 132.768Z" fill="#0371B4"/>
<path d="M372.79 114.318H325.705C325.646 114.319 325.588 114.314 325.529 114.304L347.798 75.6414C347.934 75.4006 348.131 75.2003 348.37 75.061C348.608 74.9216 348.879 74.8481 349.155 74.8481C349.431 74.8481 349.702 74.9216 349.941 75.061C350.179 75.2003 350.376 75.4006 350.512 75.6414L365.457 101.587L366.173 102.829L372.79 114.318Z" fill="white"/>
<path opacity="0.2" d="M372.79 114.318H356.714L364.605 102.828L365.174 102.001L365.458 101.587L366.174 102.828L372.79 114.318Z" fill="black"/>
<path d="M399.006 114.318H358.282L366.173 102.828L366.741 102.001L377.025 87.0277C377.207 86.7989 377.434 86.6111 377.693 86.4763C377.952 86.3415 378.237 86.2629 378.528 86.2454C378.819 86.228 379.111 86.2721 379.384 86.375C379.657 86.4779 379.906 86.6372 380.113 86.8426C380.167 86.9011 380.216 86.9629 380.262 87.0277L399.006 114.318Z" fill="white"/>
<path d="M368.313 84.7983C372.165 84.7983 375.288 81.6682 375.288 77.8069C375.288 73.9456 372.165 70.8154 368.313 70.8154C364.461 70.8154 361.338 73.9456 361.338 77.8069C361.338 81.6682 364.461 84.7983 368.313 84.7983Z" fill="white"/>
<path d="M327.005 57.8037H318.479V66.3488H327.005V57.8037Z" fill="#3F3D56"/>
<path d="M246.016 171.221H206.877C206.158 171.22 205.469 170.933 204.96 170.423C204.452 169.914 204.166 169.223 204.165 168.502V137.817C204.166 137.096 204.452 136.405 204.96 135.895C205.469 135.386 206.158 135.099 206.877 135.098H246.016C246.735 135.099 247.424 135.386 247.933 135.895C248.441 136.405 248.727 137.096 248.728 137.817V168.502C248.727 169.223 248.441 169.914 247.933 170.423C247.424 170.933 246.735 171.22 246.016 171.221Z" fill="#0371B4"/>
<path d="M230.837 162.236H211.189C211.164 162.237 211.14 162.235 211.115 162.23L220.408 146.096C220.465 145.996 220.547 145.912 220.647 145.854C220.746 145.796 220.859 145.765 220.975 145.765C221.09 145.765 221.203 145.796 221.302 145.854C221.402 145.912 221.484 145.996 221.541 146.096L227.778 156.923L228.076 157.442L230.837 162.236Z" fill="white"/>
<path opacity="0.2" d="M230.837 162.237H224.129L227.422 157.442L227.659 157.097L227.777 156.924L228.076 157.442L230.837 162.237Z" fill="black"/>
<path d="M241.777 162.236H224.783L228.076 157.442L228.313 157.096L232.605 150.848C232.68 150.753 232.775 150.674 232.884 150.618C232.992 150.562 233.11 150.529 233.232 150.522C233.353 150.514 233.475 150.533 233.589 150.576C233.703 150.619 233.807 150.685 233.893 150.771C233.916 150.795 233.936 150.821 233.955 150.848L241.777 162.236Z" fill="white"/>
<path d="M228.969 149.918C230.577 149.918 231.88 148.611 231.88 147C231.88 145.389 230.577 144.083 228.969 144.083C227.361 144.083 226.058 145.389 226.058 147C226.058 148.611 227.361 149.918 228.969 149.918Z" fill="white"/>
<path d="M214.24 138.206H208.04V144.42H214.24V138.206Z" fill="#3F3D56"/>
<path d="M115.665 58.7303C115.061 58.7404 114.484 58.9882 114.061 59.4202C113.637 59.8522 113.399 60.4339 113.399 61.0398C113.399 61.6457 113.637 62.2274 114.061 62.6594C114.484 63.0914 115.061 63.3392 115.665 63.3493H157.162C157.771 63.3575 158.36 63.1229 158.797 62.6971C159.235 62.2713 159.486 61.6889 159.496 61.0776C159.506 60.4663 159.274 59.876 158.851 59.436C158.427 58.996 157.847 58.7422 157.237 58.7303C157.212 58.7299 157.187 58.7299 157.162 58.7303H115.665Z" fill="#E6E6E6"/>
<path d="M115.665 70.7713C115.061 70.7814 114.484 71.0292 114.061 71.4612C113.637 71.8932 113.399 72.4749 113.399 73.0808C113.399 73.6867 113.637 74.2684 114.061 74.7004C114.484 75.1324 115.061 75.3802 115.665 75.3903H157.162C157.771 75.3985 158.36 75.1639 158.797 74.7381C159.235 74.3123 159.486 73.7299 159.496 73.1186C159.506 72.5074 159.274 71.917 158.851 71.477C158.427 71.037 157.847 70.7832 157.237 70.7713C157.212 70.7709 157.187 70.7709 157.162 70.7713H115.665Z" fill="#E6E6E6"/>
<path d="M115.665 82.8118C115.061 82.822 114.484 83.0697 114.061 83.5018C113.637 83.9338 113.399 84.5154 113.399 85.1213C113.399 85.7273 113.637 86.3089 114.061 86.7409C114.484 87.173 115.061 87.4207 115.665 87.4309H157.162C157.771 87.439 158.36 87.2044 158.797 86.7786C159.235 86.3528 159.486 85.7704 159.496 85.1592C159.506 84.5479 159.274 83.9575 158.851 83.5176C158.427 83.0776 157.847 82.8238 157.237 82.8118C157.212 82.8114 157.187 82.8114 157.162 82.8118H115.665Z" fill="#E6E6E6"/>
<path d="M115.665 94.8529C115.061 94.863 114.484 95.1108 114.061 95.5428C113.637 95.9748 113.399 96.5564 113.399 97.1624C113.399 97.7683 113.637 98.3499 114.061 98.782C114.484 99.214 115.061 99.4618 115.665 99.4719H157.162C157.771 99.48 158.36 99.2455 158.797 98.8196C159.235 98.3938 159.486 97.8115 159.496 97.2002C159.506 96.5889 159.274 95.9986 158.851 95.5586C158.427 95.1186 157.847 94.8648 157.237 94.8529C157.212 94.8524 157.187 94.8524 157.162 94.8529H115.665Z" fill="#E6E6E6"/>
<path d="M115.665 106.893C115.061 106.904 114.484 107.151 114.061 107.583C113.637 108.015 113.399 108.597 113.399 109.203C113.399 109.809 113.637 110.39 114.061 110.822C114.484 111.255 115.061 111.502 115.665 111.512H157.162C157.771 111.521 158.36 111.286 158.797 110.86C159.235 110.434 159.486 109.852 159.496 109.241C159.506 108.629 159.274 108.039 158.851 107.599C158.427 107.159 157.847 106.905 157.237 106.893C157.212 106.893 157.187 106.893 157.162 106.893H115.665Z" fill="#E6E6E6"/>
<path d="M115.665 118.934C115.061 118.945 114.484 119.192 114.061 119.624C113.637 120.056 113.399 120.638 113.399 121.244C113.399 121.85 113.637 122.431 114.061 122.864C114.484 123.296 115.061 123.543 115.665 123.553H157.162C157.771 123.562 158.36 123.327 158.797 122.901C159.235 122.475 159.486 121.893 159.496 121.282C159.506 120.67 159.274 120.08 158.851 119.64C158.427 119.2 157.847 118.946 157.237 118.934C157.212 118.934 157.187 118.934 157.162 118.934H115.665Z" fill="#E6E6E6"/>
<path d="M100.835 65.3249C99.9915 65.3249 99.1674 65.0743 98.4664 64.6048C97.7654 64.1354 97.2191 63.4681 96.8964 62.6874C96.5738 61.9067 96.4894 61.0476 96.6539 60.2188C96.8183 59.39 97.2243 58.6287 97.8204 58.0312C98.4166 57.4337 99.1761 57.0267 100.003 56.8619C100.83 56.697 101.687 56.7816 102.466 57.105C103.245 57.4284 103.91 57.976 104.379 58.6786C104.847 59.3813 105.097 60.2073 105.097 61.0523C105.096 62.1851 104.646 63.2711 103.847 64.0721C103.048 64.8731 101.965 65.3236 100.835 65.3249V65.3249ZM100.835 57.5566C100.145 57.5566 99.4705 57.7616 98.897 58.1458C98.3234 58.5299 97.8764 59.0758 97.6125 59.7146C97.3485 60.3534 97.2794 61.0562 97.414 61.7343C97.5486 62.4124 97.8807 63.0353 98.3685 63.5242C98.8562 64.0131 99.4776 64.346 100.154 64.4809C100.831 64.6158 101.532 64.5466 102.169 64.282C102.806 64.0174 103.351 63.5693 103.734 62.9945C104.118 62.4196 104.322 61.7437 104.322 61.0523C104.321 60.1255 103.953 59.237 103.299 58.5817C102.646 57.9263 101.759 57.5577 100.835 57.5566Z" fill="#E6E6E6"/>
<path d="M100.835 77.3654C99.9915 77.3654 99.1674 77.1148 98.4664 76.6454C97.7654 76.1759 97.2191 75.5086 96.8964 74.7279C96.5738 73.9472 96.4894 73.0881 96.6539 72.2593C96.8183 71.4305 97.2243 70.6692 97.8204 70.0717C98.4166 69.4742 99.1761 69.0673 100.003 68.9024C100.83 68.7376 101.687 68.8222 102.466 69.1455C103.245 69.4689 103.91 70.0165 104.379 70.7192C104.847 71.4218 105.097 72.2478 105.097 73.0929C105.096 74.2256 104.646 75.3116 103.847 76.1126C103.048 76.9136 101.965 77.3642 100.835 77.3654V77.3654ZM100.835 69.5972C100.145 69.5972 99.4705 69.8022 98.897 70.1863C98.3234 70.5704 97.8764 71.1164 97.6125 71.7551C97.3485 72.3939 97.2794 73.0968 97.414 73.7749C97.5486 74.453 97.8807 75.0758 98.3685 75.5647C98.8562 76.0536 99.4776 76.3865 100.154 76.5214C100.831 76.6563 101.532 76.5871 102.169 76.3225C102.806 76.0579 103.351 75.6099 103.734 75.035C104.118 74.4601 104.322 73.7843 104.322 73.0929C104.321 72.1661 103.953 71.2775 103.299 70.6222C102.646 69.9668 101.759 69.5982 100.835 69.5972Z" fill="#E6E6E6"/>
<path d="M100.835 89.3942C99.9915 89.3942 99.1674 89.1436 98.4664 88.6742C97.7654 88.2047 97.2191 87.5374 96.8964 86.7567C96.5738 85.976 96.4894 85.1169 96.6539 84.2881C96.8183 83.4594 97.2243 82.6981 97.8204 82.1005C98.4166 81.503 99.1761 81.0961 100.003 80.9312C100.83 80.7664 101.687 80.851 102.466 81.1744C103.245 81.4977 103.91 82.0454 104.379 82.748C104.847 83.4506 105.097 84.2767 105.097 85.1217C105.096 86.2544 104.646 87.3404 103.847 88.1414C103.048 88.9424 101.965 89.393 100.835 89.3942V89.3942ZM100.835 81.626C100.145 81.626 99.4705 81.831 98.897 82.2151C98.3234 82.5992 97.8764 83.1452 97.6125 83.7839C97.3485 84.4227 97.2794 85.1256 97.414 85.8037C97.5486 86.4818 97.8807 87.1046 98.3685 87.5935C98.8562 88.0824 99.4776 88.4153 100.154 88.5502C100.831 88.6851 101.532 88.6159 102.169 88.3513C102.806 88.0867 103.351 87.6387 103.734 87.0638C104.118 86.4889 104.322 85.8131 104.322 85.1217C104.321 84.1949 103.953 83.3063 103.299 82.651C102.646 81.9956 101.759 81.627 100.835 81.626Z" fill="#E6E6E6"/>
<path d="M100.835 101.435C99.9915 101.435 99.1674 101.185 98.4664 100.715C97.7654 100.246 97.2191 99.5784 96.8964 98.7977C96.5738 98.017 96.4894 97.158 96.6539 96.3292C96.8183 95.5004 97.2243 94.7391 97.8204 94.1415C98.4166 93.544 99.1761 93.1371 100.003 92.9722C100.83 92.8074 101.687 92.892 102.466 93.2154C103.245 93.5388 103.91 94.0864 104.379 94.789C104.847 95.4916 105.097 96.3177 105.097 97.1627C105.096 98.2955 104.646 99.3815 103.847 100.182C103.048 100.983 101.965 101.434 100.835 101.435V101.435ZM100.835 93.667C100.145 93.667 99.4705 93.872 98.897 94.2561C98.3234 94.6402 97.8764 95.1862 97.6125 95.8249C97.3485 96.4637 97.2794 97.1666 97.414 97.8447C97.5486 98.5228 97.8807 99.1457 98.3685 99.6345C98.8562 100.123 99.4776 100.456 100.154 100.591C100.831 100.726 101.532 100.657 102.169 100.392C102.806 100.128 103.351 99.6797 103.734 99.1048C104.118 98.5299 104.322 97.8541 104.322 97.1627C104.321 96.2359 103.953 95.3474 103.299 94.692C102.646 94.0367 101.759 93.668 100.835 93.667Z" fill="#E6E6E6"/>
<path d="M100.835 113.476C99.9915 113.476 99.1674 113.225 98.4664 112.756C97.7654 112.286 97.2191 111.619 96.8964 110.838C96.5738 110.058 96.4894 109.198 96.6539 108.37C96.8183 107.541 97.2243 106.78 97.8204 106.182C98.4166 105.585 99.1761 105.178 100.003 105.013C100.83 104.848 101.687 104.933 102.466 105.256C103.245 105.579 103.91 106.127 104.379 106.83C104.847 107.532 105.097 108.358 105.097 109.203C105.096 110.336 104.646 111.422 103.847 112.223C103.048 113.024 101.965 113.475 100.835 113.476V113.476ZM100.835 105.708C100.145 105.708 99.4705 105.913 98.897 106.297C98.3234 106.681 97.8764 107.227 97.6125 107.865C97.3485 108.504 97.2794 109.207 97.414 109.885C97.5486 110.563 97.8807 111.186 98.3685 111.675C98.8562 112.164 99.4776 112.497 100.154 112.632C100.831 112.767 101.532 112.697 102.169 112.433C102.806 112.168 103.351 111.72 103.734 111.145C104.118 110.57 104.322 109.895 104.322 109.203C104.321 108.276 103.953 107.388 103.299 106.733C102.646 106.077 101.759 105.709 100.835 105.708Z" fill="#E6E6E6"/>
<path d="M100.835 125.517C99.9915 125.517 99.1674 125.266 98.4664 124.797C97.7654 124.327 97.2191 123.66 96.8964 122.879C96.5738 122.099 96.4894 121.239 96.6539 120.411C96.8183 119.582 97.2243 118.821 97.8204 118.223C98.4166 117.626 99.1761 117.219 100.003 117.054C100.83 116.889 101.687 116.974 102.466 117.297C103.245 117.62 103.91 118.168 104.379 118.871C104.847 119.573 105.097 120.399 105.097 121.244C105.096 122.377 104.646 123.463 103.847 124.264C103.048 125.065 101.965 125.516 100.835 125.517ZM100.835 117.749C100.145 117.749 99.4705 117.954 98.897 118.338C98.3234 118.722 97.8764 119.268 97.6125 119.906C97.3485 120.545 97.2794 121.248 97.414 121.926C97.5486 122.604 97.8807 123.227 98.3685 123.716C98.8562 124.205 99.4776 124.538 100.154 124.673C100.831 124.808 101.532 124.738 102.169 124.474C102.806 124.209 103.351 123.761 103.734 123.186C104.118 122.611 104.322 121.936 104.322 121.244C104.321 120.317 103.953 119.429 103.299 118.774C102.646 118.118 101.759 117.75 100.835 117.749V117.749Z" fill="#E6E6E6"/>
<path d="M100.834 62.994C101.905 62.994 102.772 62.1245 102.772 61.0519C102.772 59.9794 101.905 59.1099 100.834 59.1099C99.7644 59.1099 98.8969 59.9794 98.8969 61.0519C98.8969 62.1245 99.7644 62.994 100.834 62.994Z" fill="#6C63FF"/>
<path d="M100.834 87.0756C101.905 87.0756 102.772 86.2061 102.772 85.1335C102.772 84.0609 101.905 83.1914 100.834 83.1914C99.7644 83.1914 98.8969 84.0609 98.8969 85.1335C98.8969 86.2061 99.7644 87.0756 100.834 87.0756Z" fill="#6C63FF"/>
<path d="M100.834 99.1166C101.905 99.1166 102.772 98.2471 102.772 97.1745C102.772 96.1019 101.905 95.2324 100.834 95.2324C99.7644 95.2324 98.8969 96.1019 98.8969 97.1745C98.8969 98.2471 99.7644 99.1166 100.834 99.1166Z" fill="#6C63FF"/>
<path d="M87.6063 14.9873C89.4254 14.9873 90.9001 13.5092 90.9001 11.6858C90.9001 9.86242 89.4254 8.38428 87.6063 8.38428C85.7872 8.38428 84.3125 9.86242 84.3125 11.6858C84.3125 13.5092 85.7872 14.9873 87.6063 14.9873Z" fill="#E6E6E6"/>
<path d="M106.71 14.9873C108.53 14.9873 110.004 13.5092 110.004 11.6858C110.004 9.86242 108.53 8.38428 106.71 8.38428C104.891 8.38428 103.417 9.86242 103.417 11.6858C103.417 13.5092 104.891 14.9873 106.71 14.9873Z" fill="#E6E6E6"/>
<g filter="url(#filter1_dd)">
<rect x="53" y="40" width="116" height="244" rx="8" fill="#F3F3F3"/>
<rect x="53.5" y="40.5" width="115" height="243" rx="7.5" stroke="#B4B4B4"/>
</g>
<path d="M162.941 54.5096V266.152C162.94 268.673 161.938 271.091 160.155 272.873C158.371 274.656 155.953 275.657 153.432 275.657H67.5096C66.2605 275.659 65.0233 275.415 63.8688 274.938C62.7144 274.461 61.6654 273.761 60.7819 272.878C59.8985 271.995 59.198 270.946 58.7206 269.792C58.2433 268.638 57.9984 267.401 58 266.152V54.5096C58 53.2608 58.2459 52.0242 58.7238 50.8704C59.2016 49.7166 59.9021 48.6683 60.7852 47.7852C61.6682 46.9021 62.7166 46.2017 63.8704 45.7238C65.0241 45.2459 66.2607 45 67.5096 45H80.3696V46.65C80.3696 48.7267 81.1946 50.7183 82.663 52.1868C84.1315 53.6552 86.1231 54.4802 88.1998 54.4802H131.898C133.974 54.4802 135.966 53.6552 137.435 52.1868C138.903 50.7183 139.728 48.7267 139.728 46.65V45H153.432C154.681 44.9996 155.918 45.2453 157.071 45.723C158.225 46.2008 159.274 46.9013 160.157 47.7844C161.04 48.6675 161.741 49.716 162.218 50.87C162.696 52.0239 162.942 53.2607 162.941 54.5096V54.5096Z" fill="#0371B4"/>
<path d="M159.18 80.373H61.7745V127.816H159.18V80.373Z" fill="#3F3D56"/>
<path d="M100.992 112.95C103.542 122.375 112.275 128.213 112.275 128.213C112.275 128.213 116.875 118.768 114.325 109.343C111.775 99.9171 103.042 94.0796 103.042 94.0796C103.042 94.0796 98.4422 103.524 100.992 112.95Z" fill="white"/>
<path d="M104.739 110.923C111.735 117.734 112.59 128.204 112.59 128.204C112.59 128.204 102.101 127.632 95.104 120.821C88.1073 114.01 87.2527 103.54 87.2527 103.54C87.2527 103.54 97.742 104.112 104.739 110.923Z" fill="#0371B4"/>
<path d="M124.188 112.95C121.638 122.375 112.905 128.213 112.905 128.213C112.905 128.213 108.305 118.768 110.855 109.343C113.405 99.9171 122.138 94.0796 122.138 94.0796C122.138 94.0796 126.738 103.524 124.188 112.95Z" fill="white"/>
<path d="M120.442 110.923C113.445 117.734 112.59 128.204 112.59 128.204C112.59 128.204 123.08 127.632 130.076 120.821C137.073 114.01 137.928 103.54 137.928 103.54C137.928 103.54 127.438 104.112 120.442 110.923Z" fill="#0371B4"/>
<path d="M150.468 154.384H70.4862V158.775H150.468V154.384Z" fill="#F0F0F0"/>
<path d="M150.468 161.458H70.4862V165.848H150.468V161.458Z" fill="#F0F0F0"/>
<path d="M150.468 168.531H70.4862V172.922H150.468V168.531Z" fill="#F0F0F0"/>
<path d="M150.468 175.604H70.4862V179.995H150.468V175.604Z" fill="#F0F0F0"/>
<path d="M125.691 213.439L107.889 200.801L95.2507 218.604L113.053 231.242L125.691 213.439Z" fill="#F0F0F0"/>
<path d="M112.892 235.832C111.896 235.832 110.922 235.536 110.093 234.983C109.265 234.429 108.619 233.642 108.238 232.722C107.856 231.801 107.757 230.788 107.951 229.811C108.145 228.833 108.625 227.936 109.33 227.231C110.035 226.526 110.932 226.047 111.91 225.852C112.887 225.658 113.9 225.758 114.82 226.139C115.741 226.52 116.528 227.166 117.082 227.995C117.635 228.823 117.931 229.797 117.931 230.794C117.929 232.129 117.398 233.41 116.453 234.354C115.509 235.299 114.228 235.83 112.892 235.832V235.832ZM112.892 226.595C112.062 226.595 111.25 226.841 110.56 227.303C109.869 227.764 109.331 228.42 109.014 229.187C108.696 229.954 108.613 230.798 108.775 231.613C108.937 232.427 109.336 233.175 109.924 233.762C110.511 234.35 111.259 234.749 112.073 234.911C112.888 235.073 113.732 234.99 114.499 234.672C115.266 234.355 115.922 233.817 116.383 233.126C116.845 232.436 117.091 231.624 117.091 230.794C117.09 229.68 116.647 228.613 115.86 227.826C115.073 227.039 114.006 226.596 112.892 226.595V226.595Z" fill="#3F3D56"/>
<defs>
<filter id="filter0_d" x="74" y="0" width="363.238" height="196.634" filterUnits="userSpaceOnUse" color-interpolation-filters="sRGB">
<feFlood flood-opacity="0" result="BackgroundImageFix"/>
<feColorMatrix in="SourceAlpha" type="matrix" values="0 0 0 0 0 0 0 0 0 0 0 0 0 0 0 0 0 0 127 0"/>
<feOffset dx="4" dy="4"/>
<feGaussianBlur stdDeviation="4"/>
<feColorMatrix type="matrix" values="0 0 0 0 0.4875 0 0 0 0 0.486281 0 0 0 0 0.486281 0 0 0 0.25 0"/>
<feBlend mode="normal" in2="BackgroundImageFix" result="effect1_dropShadow"/>
<feBlend mode="normal" in="SourceGraphic" in2="effect1_dropShadow" result="shape"/>
</filter>
<filter id="filter1_dd" x="47" y="34" width="133" height="261" filterUnits="userSpaceOnUse" color-interpolation-filters="sRGB">
<feFlood flood-opacity="0" result="BackgroundImageFix"/>
<feColorMatrix in="SourceAlpha" type="matrix" values="0 0 0 0 0 0 0 0 0 0 0 0 0 0 0 0 0 0 127 0"/>
<feOffset dx="3" dy="3"/>
<feGaussianBlur stdDeviation="4"/>
<feColorMatrix type="matrix" values="0 0 0 0 0 0 0 0 0 0 0 0 0 0 0 0 0 0 0.25 0"/>
<feBlend mode="normal" in2="BackgroundImageFix" result="effect1_dropShadow"/>
<feColorMatrix in="SourceAlpha" type="matrix" values="0 0 0 0 0 0 0 0 0 0 0 0 0 0 0 0 0 0 127 0"/>
<feOffset dx="-2" dy="-2"/>
<feGaussianBlur stdDeviation="2"/>
<feColorMatrix type="matrix" values="0 0 0 0 0.7625 0 0 0 0 0.719292 0 0 0 0 0.719292 0 0 0 0.25 0"/>
<feBlend mode="normal" in2="effect1_dropShadow" result="effect2_dropShadow"/>
<feBlend mode="normal" in="SourceGraphic" in2="effect2_dropShadow" result="shape"/>
</filter>
</defs>
</svg>
